<svg xmlns="http://www.w3.org/2000/svg" width="589.424" height="450.381" viewBox="0 0 589.424 450.381">
  <g id="Startup_Idea" data-name="Startup Idea" transform="translate(-185 -118.64)">
    <path id="Caminho_2" data-name="Caminho 2" d="M234.409,567.66,185.1,281.7a30.89,30.89,0,0,1,5.7-20.463L307.2,131.321a30.656,30.656,0,0,1,27.556-12.556l356.93,35.128a30.856,30.856,0,0,1,17.109,7.141,30.509,30.509,0,0,1,9.872,15.719l54.776,179.568a30.846,30.846,0,0,1-.1,15.767L719.773,568.427Z" fill="#1f1d2a" opacity="0.72"/>
    <path id="Caminho_3" data-name="Caminho 3" d="M649.276,296.3H644.1v188h5.176Z" transform="translate(-239.085 -92.52)" fill="#61656d"/>
    <path id="Caminho_4" data-name="Caminho 4" d="M405.159,296.3H242.316L190.8,353.761a30.89,30.89,0,0,0-5.7,20.463L204.074,484.3H405.159Z" transform="translate(0 -92.52)" fill="#868a91"/>
    <path id="Caminho_5" data-name="Caminho 5" d="M398.066,311.8H235.607L190.8,361.833a30.89,30.89,0,0,0-5.7,20.463l17.827,103.418H398.066Z" transform="translate(0 -100.592)" fill="#f4f4f4"/>
    <path id="Caminho_6" data-name="Caminho 6" d="M398.066,311.8H235.607L190.8,361.833a30.89,30.89,0,0,0-5.7,20.463l17.827,103.418H398.066Z" transform="translate(0 -100.592)" opacity="0.05"/>
    <g id="Grupo_2" data-name="Grupo 2" transform="translate(312.907 304.659)" opacity="0.3">
      <path id="Caminho_7" data-name="Caminho 7" d="M494.456,506.8H451.9v42.556h42.556Z" transform="translate(-451.9 -506.801)" opacity="0.3"/>
    </g>
    <path id="Caminho_8" data-name="Caminho 8" d="M417.426,671.375H222.379L221.9,668.5H417.426Z" transform="translate(-19.216 -286.35)" fill="#b2b6bb"/>
    <path id="Caminho_9" data-name="Caminho 9" d="M484.755,498.6H442.2v42.556h42.556Z" transform="translate(-133.941 -197.872)" fill="#fff"/>
    <g id="Grupo_4" data-name="Grupo 4" transform="translate(327.666 304.659)" opacity="0.15">
      <g id="Grupo_3" data-name="Grupo 3" opacity="0.15">
        <path id="Caminho_10" data-name="Caminho 10" d="M486.437,508.622a1.931,1.931,0,0,1-.288,1.054,1.608,1.608,0,0,1-.863.719,1.725,1.725,0,0,1-1.1.1,2.076,2.076,0,0,1-.958-.527,1.883,1.883,0,0,1-.527-1.342,1.8,1.8,0,0,1,1.821-1.821,2.06,2.06,0,0,1,1.342.527A1.9,1.9,0,0,1,486.437,508.622Z" transform="translate(-482.699 -506.801)" opacity="0.15"/>
      </g>
    </g>
    <path id="Caminho_11" data-name="Caminho 11" d="M247.1,530.9h41.166v48.5l-40.159-.863Z" transform="translate(-32.34 -214.691)" opacity="0.1"/>
    <path id="Caminho_12" data-name="Caminho 12" d="M243.1,526.9h41.166v48.5l-40.16-.863Z" transform="translate(-30.257 -212.608)" fill="#fff"/>
    <path id="Caminho_13" data-name="Caminho 13" d="M283.123,552.7h-30a.586.586,0,0,0-.431.192.608.608,0,0,0-.192.431.432.432,0,0,0,.048.24c.048.048.048.144.144.192a.662.662,0,0,0,.192.144.359.359,0,0,0,.24.048h30a.585.585,0,0,0,.431-.192.607.607,0,0,0,.192-.431.432.432,0,0,0-.048-.24c-.048-.048-.1-.144-.144-.192a.661.661,0,0,0-.192-.144A.521.521,0,0,0,283.123,552.7Z" transform="translate(-35.152 -226.045)" fill="#ececec"/>
    <path id="Caminho_14" data-name="Caminho 14" d="M283.123,556.5h-30a.585.585,0,0,0-.431.192.607.607,0,0,0-.192.431.586.586,0,0,0,.192.431.607.607,0,0,0,.431.192h30a.432.432,0,0,0,.24-.048c.048-.048.144-.1.192-.144a.663.663,0,0,0,.144-.192.359.359,0,0,0,.048-.24.657.657,0,0,0-.623-.623Z" transform="translate(-35.152 -228.024)" fill="#ececec"/>
    <path id="Caminho_15" data-name="Caminho 15" d="M283.123,578h-30a.433.433,0,0,0-.24.048c-.048.048-.144.1-.192.144a.66.66,0,0,0-.144.192.359.359,0,0,0-.048.24.586.586,0,0,0,.192.431.608.608,0,0,0,.431.192h30a.586.586,0,0,0,.431-.192.607.607,0,0,0,.192-.431.432.432,0,0,0-.048-.24c-.048-.048-.1-.144-.144-.192a.664.664,0,0,0-.192-.144A.522.522,0,0,0,283.123,578Z" transform="translate(-35.152 -239.221)" fill="#ececec"/>
    <path id="Caminho_16" data-name="Caminho 16" d="M282.63,590.6H259.723a.432.432,0,0,0-.24.048c-.048.048-.144.1-.192.144a.663.663,0,0,0-.144.192.359.359,0,0,0-.048.24.586.586,0,0,0,.192.431.608.608,0,0,0,.431.192H282.63a.586.586,0,0,0,.431-.192.608.608,0,0,0,.192-.431.585.585,0,0,0-.192-.431A.862.862,0,0,0,282.63,590.6Z" transform="translate(-38.589 -245.783)" fill="#ececec"/>
    <path id="Caminho_17" data-name="Caminho 17" d="M283.63,608.3H260.723a.432.432,0,0,0-.24.048c-.048.048-.144.1-.192.144a.661.661,0,0,0-.144.192.359.359,0,0,0-.048.24.433.433,0,0,0,.048.24c.048.048.1.144.144.192a.664.664,0,0,0,.192.144.359.359,0,0,0,.24.048H283.63a.432.432,0,0,0,.24-.048c.048-.048.144-.1.192-.144a.663.663,0,0,0,.144-.192.36.36,0,0,0,.048-.24.432.432,0,0,0-.048-.24c-.048-.048-.048-.144-.144-.192a.662.662,0,0,0-.192-.144A.521.521,0,0,0,283.63,608.3Z" transform="translate(-39.11 -255)" fill="#ececec"/>
    <g id="Grupo_6" data-name="Grupo 6" transform="translate(231.206 316.819)" opacity="0.15">
      <g id="Grupo_5" data-name="Grupo 5" transform="translate(0)" opacity="0.15">
        <path id="Caminho_18" data-name="Caminho 18" d="M285.051,533.961a1.717,1.717,0,0,1-.431,1.15,1.841,1.841,0,0,1-1.054.623,1.82,1.82,0,0,1-2.013-1.1,1.722,1.722,0,0,1-.048-1.2,1.832,1.832,0,0,1,.719-.958,1.732,1.732,0,0,1,1.2-.287,1.841,1.841,0,0,1,1.1.527A1.74,1.74,0,0,1,285.051,533.961Z" transform="translate(-281.418 -532.176)" opacity="0.15"/>
      </g>
    </g>
    <path id="Caminho_19" data-name="Caminho 19" d="M252.716,420H216.2v34.169h36.517Z" transform="translate(-16.247 -156.939)" fill="#dadddf"/>
    <path id="Caminho_20" data-name="Caminho 20" d="M251.823,442.7H225.178a.288.288,0,0,0-.192.048c-.048.048-.1.048-.144.1s-.1.1-.1.144a.288.288,0,0,0-.048.192v.048a.544.544,0,0,0,.144.383.518.518,0,0,0,.335.144h26.645a.495.495,0,0,0,.527-.527v-.048a.544.544,0,0,0-.144-.383A1.128,1.128,0,0,0,251.823,442.7Z" transform="translate(-20.674 -168.76)" fill="#b1b5ba"/>
    <path id="Caminho_21" data-name="Caminho 21" d="M251.823,453.98H225.178a.288.288,0,0,0-.192.048c-.048.048-.1.048-.144.1s-.1.1-.1.144a.288.288,0,0,0-.048.192v.048a.288.288,0,0,0,.048.192c.048.048.048.1.1.144s.1.1.144.1.144.048.192.048h26.645a.288.288,0,0,0,.192-.048c.048-.048.1-.048.144-.1s.1-.1.1-.144a.288.288,0,0,0,.048-.192v-.048a.544.544,0,0,0-.144-.383A.3.3,0,0,0,251.823,453.98Z" transform="translate(-20.674 -174.625)" fill="#b1b5ba"/>
    <path id="Caminho_22" data-name="Caminho 22" d="M251.823,465.1H225.178a.288.288,0,0,0-.192.048c-.048.048-.1.048-.144.1s-.1.1-.1.144a.288.288,0,0,0-.048.192v.048a.288.288,0,0,0,.048.192c.048.048.048.1.1.144s.1.1.144.1a.288.288,0,0,0,.192.048h26.645a.288.288,0,0,0,.192-.048c.048-.048.1-.048.144-.1s.1-.1.1-.144a.288.288,0,0,0,.048-.192v-.048a.544.544,0,0,0-.144-.383A.694.694,0,0,0,251.823,465.1Z" transform="translate(-20.674 -180.427)" fill="#b1b5ba"/>
    <path id="Caminho_23" data-name="Caminho 23" d="M251.2,476.4H230.879a.288.288,0,0,0-.192.048c-.048.048-.1.048-.144.1s-.1.1-.1.144a.289.289,0,0,0-.048.192v.048a.288.288,0,0,0,.048.192c.048.048.048.1.1.144s.1.1.144.1a.288.288,0,0,0,.192.048H251.2a.288.288,0,0,0,.192-.048c.048-.048.1-.048.144-.1s.1-.1.1-.144.048-.144.048-.192v-.048a.289.289,0,0,0-.048-.192c-.048-.048-.048-.1-.1-.144s-.1-.1-.144-.1S251.294,476.4,251.2,476.4Z" transform="translate(-23.643 -186.309)" fill="#b1b5ba"/>
    <path id="Caminho_24" data-name="Caminho 24" d="M252.584,425.9H249.9v2.684h2.684Z" transform="translate(-33.798 -160.01)" fill="#b1b5ba"/>
    <path id="Caminho_25" data-name="Caminho 25" d="M252.533,427.294a1.207,1.207,0,0,1-.431.958,1.425,1.425,0,0,1-.958.383,2.038,2.038,0,0,1-.527-.1,1.36,1.36,0,0,1-.431-.288,1.132,1.132,0,0,1-.288-.431,1.723,1.723,0,0,1-.1-.527A1.309,1.309,0,0,1,251.095,426a1.424,1.424,0,0,1,.958.383A.986.986,0,0,1,252.533,427.294Z" transform="translate(-33.746 -160.064)" fill="#b1b5ba"/>
    <g id="Grupo_7" data-name="Grupo 7" transform="translate(284.92 238.905)" opacity="0.7">
      <path id="Caminho_26" data-name="Caminho 26" d="M393.692,371.418s29.281-5.272,36.661,2.109,4.553,39.489,4.553,39.489l-41.405-.192Z" transform="translate(-393.5 -369.594)" fill="#b2b6bb" opacity="0.7"/>
    </g>
    <path id="Caminho_27" data-name="Caminho 27" d="M383.891,360.168s24.68-3.355,31.965,3.977c7.236,7.332,9.153,37.62,9.153,37.62l-41.31-.24Z" transform="translate(-103.476 -125.382)" fill="#dadddf"/>
    <g id="Grupo_9" data-name="Grupo 9" transform="translate(299.631 237.154)" opacity="0.15">
      <g id="Grupo_8" data-name="Grupo 8" transform="translate(0)" opacity="0.15">
        <path id="Caminho_28" data-name="Caminho 28" d="M427.074,367.455a1.426,1.426,0,0,1-.479.958,1.547,1.547,0,0,1-1.006.383,1.379,1.379,0,0,1-1.006-.431,1.522,1.522,0,0,1-.383-.958,1.216,1.216,0,0,1,.1-.575,1.6,1.6,0,0,1,.288-.479,1.46,1.46,0,0,1,.767-.383,1.353,1.353,0,0,1,.863.1,1.441,1.441,0,0,1,.671.527A2.8,2.8,0,0,1,427.074,367.455Z" transform="translate(-424.199 -365.941)" opacity="0.15"/>
      </g>
    </g>
    <path id="Caminho_29" data-name="Caminho 29" d="M424.787,383.746l-24.009-.144a1.891,1.891,0,0,0-1.2.479,1.589,1.589,0,0,0-.479,1.2,1.891,1.891,0,0,0,.479,1.2,1.59,1.59,0,0,0,1.2.479l24.009.144a1.891,1.891,0,0,0,1.2-.479,1.59,1.59,0,0,0,.479-1.2,1.638,1.638,0,0,0-1.677-1.677Z" transform="translate(-111.497 -137.984)" fill="#b1b5ba"/>
    <path id="Caminho_30" data-name="Caminho 30" d="M425.837,401.144,399.479,401a.288.288,0,0,0-.192.048c-.048,0-.1.048-.144.1s-.1.1-.1.144a.407.407,0,0,0,0,.383c.048.048.048.1.1.144s.1.1.144.1.144.048.192.048l26.358.144a.479.479,0,0,0,0-.958Z" transform="translate(-111.445 -147.044)" fill="#b1b5ba"/>
    <path id="Caminho_31" data-name="Caminho 31" d="M425.737,413.542l-26.358-.144a.288.288,0,0,0-.192.048c-.048,0-.1.048-.144.1s-.1.1-.1.144a.407.407,0,0,0,0,.383c.048.048.048.1.1.144s.1.1.144.1.144.048.192.048l26.358.144a.288.288,0,0,0,.192-.048.363.363,0,0,0,.192-.1c.048-.048.1-.1.1-.144a.408.408,0,0,0,0-.383c-.048-.048-.048-.1-.1-.144s-.1-.1-.144-.1C425.881,413.59,425.833,413.542,425.737,413.542Z" transform="translate(-111.393 -153.501)" fill="#b1b5ba"/>
    <path id="Caminho_32" data-name="Caminho 32" d="M425.737,426.042l-26.358-.144a.479.479,0,0,0,0,.958l26.358.144a.475.475,0,0,0,.335-.815A.518.518,0,0,0,425.737,426.042Z" transform="translate(-111.393 -160.01)" fill="#b1b5ba"/>
    <path id="Caminho_33" data-name="Caminho 33" d="M480.937,529.5H454.579a.479.479,0,0,0,0,.958h26.358a.479.479,0,0,0,0-.958Z" transform="translate(-140.139 -213.963)" fill="#b1b5ba"/>
    <path id="Caminho_34" data-name="Caminho 34" d="M480.937,542H454.579a.479.479,0,0,0,0,.958h26.358a.479.479,0,0,0,0-.958Z" transform="translate(-140.139 -220.473)" fill="#b1b5ba"/>
    <path id="Caminho_35" data-name="Caminho 35" d="M477.295,554.5H454.579a.479.479,0,0,0,0,.958h22.716a.479.479,0,0,0,0-.958Z" transform="translate(-140.139 -226.982)" fill="#b1b5ba"/>
    <path id="Caminho_36" data-name="Caminho 36" d="M768.68,676.1a15.2,15.2,0,0,1-7,2.2,15.5,15.5,0,0,1-7.236-1.2,15.185,15.185,0,0,1-5.895-4.361,16.374,16.374,0,0,1-3.307-6.566,15.765,15.765,0,0,1,12.987-19.169,16.048,16.048,0,0,1,8.482,1.054,15.53,15.53,0,0,1,6.661,5.367,15.869,15.869,0,0,1,1.15,16.438A15.574,15.574,0,0,1,768.68,676.1Z" transform="translate(-291.542 -275.07)" fill="#b2b6bb"/>
    <path id="Caminho_37" data-name="Caminho 37" d="M777.2,670.786a4.633,4.633,0,0,1-.815,2.636,4.755,4.755,0,0,1-2.157,1.725,4.811,4.811,0,0,1-5.224-1.1,4.859,4.859,0,0,1-1.294-2.444,5.016,5.016,0,0,1,.287-2.779,5.2,5.2,0,0,1,1.773-2.157,4.856,4.856,0,0,1,2.684-.767,4.679,4.679,0,0,1,3.355,1.438A4.737,4.737,0,0,1,777.2,670.786Z" transform="translate(-303.411 -284.995)" fill="#fff"/>
    <path id="Caminho_38" data-name="Caminho 38" d="M776.581,694.892v1.965a15.366,15.366,0,0,1-8.338,2.252A16.081,16.081,0,0,1,760,696.665V694.7a8.267,8.267,0,0,1,8.387-8,8.381,8.381,0,0,1,5.751,2.444A8.291,8.291,0,0,1,776.581,694.892Z" transform="translate(-299.442 -295.826)" fill="#fff"/>
    <path id="Caminho_39" data-name="Caminho 39" d="M1102.479,364.116a28.638,28.638,0,0,1-15.287,4.121,29.438,29.438,0,0,1-15.192-4.5,28.961,28.961,0,1,1,30.479.383Z" transform="translate(-454.925 -99.809)" fill="#b2b6bb"/>
    <path id="Caminho_40" data-name="Caminho 40" d="M1118.27,354.516a8.933,8.933,0,0,1-1.534,4.888,9.274,9.274,0,0,1-3.978,3.211,8.412,8.412,0,0,1-5.08.431,9.057,9.057,0,0,1-4.5-2.444,8.817,8.817,0,0,1-1.773-9.633,8.775,8.775,0,0,1,3.307-3.93,8.992,8.992,0,0,1,4.936-1.438,8.12,8.12,0,0,1,3.355.719,8.932,8.932,0,0,1,4.7,4.84A8.519,8.519,0,0,1,1118.27,354.516Z" transform="translate(-476.851 -118.195)" fill="#fff"/>
    <path id="Caminho_41" data-name="Caminho 41" d="M1117.027,398.331l-.048,3.642a28.64,28.64,0,0,1-15.287,4.121,29,29,0,0,1-15.192-4.5l.048-3.642a15.241,15.241,0,1,1,30.479.383Z" transform="translate(-469.474 -137.618)" fill="#fff"/>
    <path id="Caminho_42" data-name="Caminho 42" d="M1188.553,580a19.859,19.859,0,0,0-1.342,6.23H1181.7v-.144l.048-.431a16.969,16.969,0,0,1,.383-2.157,17.989,17.989,0,0,1,1.2-3.4.047.047,0,0,1,.048-.048h.1Z" transform="translate(-519.051 -240.262)" fill="#b2b6bb"/>
    <path id="Caminho_43" data-name="Caminho 43" d="M1188.361,602.49h-5.128a.047.047,0,0,1-.048-.048,15.034,15.034,0,0,1-1.486-5.751V596.5h5.415c.1,0,.1,0,.1.1.048.431.048.911.1,1.342.1.719.192,1.39.336,2.109a21.245,21.245,0,0,0,.719,2.492Z" transform="translate(-519.051 -248.855)" fill="#b2b6bb"/>
    <path id="Caminho_44" data-name="Caminho 44" d="M1227.918,612.3c0,.048-.048.048-.048.1a13.818,13.818,0,0,1-1.438,1.869,13.362,13.362,0,0,1-2.109,1.917,14.911,14.911,0,0,1-7.045,2.875l-.192.048h-.144l-.144-.1.144-.1a16.1,16.1,0,0,0,3.978-3.882,22.261,22.261,0,0,0,1.63-2.684.047.047,0,0,1,.048-.048h5.319Z" transform="translate(-537.33 -257.083)" fill="#b2b6bb"/>
    <path id="Caminho_45" data-name="Caminho 45" d="M1221.693,586.23H1214.6V580h5.607l.048.048a15.986,15.986,0,0,1,1.1,3.642,13.864,13.864,0,0,1,.287,1.965A2.331,2.331,0,0,1,1221.693,586.23Z" transform="translate(-536.184 -240.262)" fill="#b2b6bb"/>
    <path id="Caminho_46" data-name="Caminho 46" d="M1221.593,596.349v.431c-.048.335-.048.671-.1,1.054-.048.479-.144.958-.24,1.438a15.744,15.744,0,0,1-.911,3.019c0,.048,0,.048-.048.048h-5.8V596.3h7.093Z" transform="translate(-536.132 -248.751)" fill="#b2b6bb"/>
    <path id="Caminho_47" data-name="Caminho 47" d="M1203.749,580.1v6.23H1196.8a1.632,1.632,0,0,1,.048-.479,7.93,7.93,0,0,1,.144-1.054l.288-1.581a17.652,17.652,0,0,1,1.006-3.067c0-.048,0-.048.048-.048h5.415Z" transform="translate(-526.915 -240.315)" fill="#b2b6bb"/>
    <path id="Caminho_48" data-name="Caminho 48" d="M1203.7,596.524v5.942h-5.655a.047.047,0,0,1-.048-.048,14.611,14.611,0,0,1-.959-3.115c-.1-.575-.192-1.1-.24-1.677-.048-.383-.048-.719-.1-1.1v-.048h6.853C1203.7,596.429,1203.7,596.476,1203.7,596.524Z" transform="translate(-526.863 -248.832)" fill="#b2b6bb"/>
    <path id="Caminho_49" data-name="Caminho 49" d="M1237.388,586.332h-5.846a19.874,19.874,0,0,0-1.342-6.23h5.511l.048.048a16.212,16.212,0,0,1,1.342,3.882,16.582,16.582,0,0,1,.288,2.156v.144Z" transform="translate(-544.308 -240.315)" fill="#b2b6bb"/>
    <path id="Caminho_50" data-name="Caminho 50" d="M1237.6,596.3v.383c-.048.527-.1,1.054-.192,1.581a14.749,14.749,0,0,1-1.054,3.5,5.632,5.632,0,0,1-.24.527.047.047,0,0,1-.048.048H1230.6c.048-.192.144-.383.192-.527a14.381,14.381,0,0,0,.719-2.827,15.726,15.726,0,0,0,.24-2.109V596.4c0-.048,0-.048.048-.048Z" transform="translate(-544.517 -248.751)" fill="#b2b6bb"/>
    <path id="Caminho_51" data-name="Caminho 51" d="M1227.879,569.62h-5.271l-.048-.048a16.6,16.6,0,0,0-2.54-3.738,13.339,13.339,0,0,0-1.917-1.773c-.335-.288-.719-.527-1.054-.767l-.048-.048.1-.048-.1-.1a14.874,14.874,0,0,1,6.134,2.109A14.37,14.37,0,0,1,1227.879,569.62Z" transform="translate(-537.434 -231.462)" fill="#b2b6bb"/>
    <path id="Caminho_52" data-name="Caminho 52" d="M1197.535,618.955h-.144c-.575-.1-1.1-.192-1.677-.335a13.926,13.926,0,0,1-2.971-1.1,14.224,14.224,0,0,1-3.019-1.965,12.756,12.756,0,0,1-2.923-3.4V612.1h4.936l.048.048a18.536,18.536,0,0,0,1.725,2.827,22.5,22.5,0,0,0,2.013,2.252,20.288,20.288,0,0,0,1.965,1.581Z" transform="translate(-521.707 -256.98)" fill="#b2b6bb"/>
    <path id="Caminho_53" data-name="Caminho 53" d="M1197.643,563.2c-.192.144-.479.335-.719.527a16.184,16.184,0,0,0-2.3,2.157,15.349,15.349,0,0,0-2.4,3.45c-.048.1-.1.144-.144.24l-.048.048H1187.1a14.643,14.643,0,0,1,4.553-4.361,15.58,15.58,0,0,1,5.942-2.157l-.048.048Z" transform="translate(-521.863 -231.462)" fill="#b2b6bb"/>
    <path id="Caminho_54" data-name="Caminho 54" d="M1219.532,612.247a16.936,16.936,0,0,1-2.348,3.163,13.392,13.392,0,0,1-2.684,2.252V612.2h5.032Z" transform="translate(-536.132 -257.03)" fill="#b2b6bb"/>
    <path id="Caminho_55" data-name="Caminho 55" d="M1206.04,612.3v5.319a16.072,16.072,0,0,1-4.84-5.319Z" transform="translate(-529.206 -257.083)" fill="#b2b6bb"/>
    <path id="Caminho_56" data-name="Caminho 56" d="M1219.44,571.128h-4.84V566a13.673,13.673,0,0,1,2.732,2.252A18.525,18.525,0,0,1,1219.44,571.128Z" transform="translate(-536.184 -232.971)" fill="#b2b6bb"/>
    <path id="Caminho_57" data-name="Caminho 57" d="M1206.249,566.4v4.984H1201.6A14.492,14.492,0,0,1,1206.249,566.4Z" transform="translate(-529.414 -233.179)" fill="#b2b6bb"/>
    <path id="Caminho_58" data-name="Caminho 58" d="M767.244,386.1h-2.252a2.146,2.146,0,0,1-.958-.192,4.754,4.754,0,0,1-.815-.527,2.167,2.167,0,0,1-.527-.815,2.145,2.145,0,0,1-.192-.958,2.426,2.426,0,0,1,.767-1.773,2.508,2.508,0,0,1,1.773-.767h3.115l1.486-8.482h-2.828a2.509,2.509,0,0,1-1.725-.767,2.675,2.675,0,0,1-.719-1.773,2.461,2.461,0,0,1,.719-1.773,2.32,2.32,0,0,1,1.725-.767h3.738l.958-5.8a2.369,2.369,0,0,1,.863-1.534,2.617,2.617,0,0,1,2.732-.335,2.341,2.341,0,0,1,.863.671,2.7,2.7,0,0,1,.527.958,2.794,2.794,0,0,1,.1,1.1l-.815,4.936h7.668l.958-5.8a2.429,2.429,0,0,1,.911-1.534,2.734,2.734,0,0,1,1.677-.575,2.612,2.612,0,0,1,1.054.24,2.341,2.341,0,0,1,.863.671,2.7,2.7,0,0,1,.527.958,2.811,2.811,0,0,1,.048,1.1l-.815,4.936h2.252a2.508,2.508,0,0,1,1.773.767,2.461,2.461,0,0,1,.719,1.773,2.622,2.622,0,0,1-2.54,2.54H787.66l-1.438,8.482H789a2.145,2.145,0,0,1,.958.192,4.746,4.746,0,0,1,.815.527,2.6,2.6,0,0,1,.719,1.773,2.426,2.426,0,0,1-.767,1.773,2.508,2.508,0,0,1-1.773.767h-3.642l-1.054,5.99a2.743,2.743,0,0,1-.863,1.533,2.616,2.616,0,0,1-2.732.335,2.343,2.343,0,0,1-.863-.671,2.7,2.7,0,0,1-.527-.958,2.131,2.131,0,0,1-.048-1.1l.958-5.128h-7.668l-1.006,5.99a2.431,2.431,0,0,1-.911,1.533,2.638,2.638,0,0,1-1.677.575,2.009,2.009,0,0,1-1.054-.24,2.343,2.343,0,0,1-.863-.671,2.7,2.7,0,0,1-.527-.958,2.852,2.852,0,0,1-.048-1.1Zm13.706-5.08,1.486-8.482h-7.62l-1.486,8.482Z" transform="translate(-300.744 -125.485)" fill="#b2b6bb"/>
    <path id="Caminho_59" data-name="Caminho 59" d="M1106.75,759.9a20.847,20.847,0,0,0,.192,41.693,20.252,20.252,0,0,0,5.08-.671,2.26,2.26,0,0,0,.719-.288,2.043,2.043,0,0,0,.527-.575,1.1,1.1,0,0,0,.192-.671,1.863,1.863,0,0,0-.1-.719,1.365,1.365,0,0,0-.192-.575,1.133,1.133,0,0,0-.383-.431,2.117,2.117,0,0,0-.767-.287,1.574,1.574,0,0,0-.815.048,14.228,14.228,0,0,1-4.265.479,17.233,17.233,0,0,1-9.537-2.827,17.456,17.456,0,0,1-6.374-7.668,17.169,17.169,0,0,1,22.284-22.572,16.815,16.815,0,0,1,7.715,6.278A17.742,17.742,0,0,1,1124,780.6a15.809,15.809,0,0,1-1.869,7.811,5.58,5.58,0,0,1-3.019,2.78h-.431c-.527,0-.671-.144-.671-.192a5.414,5.414,0,0,1-.383-1.15c-.24-2.061-.048-8.435-.048-8.53v-.767a11.063,11.063,0,0,0-10.783-11.262c-5.895,0-10.831,5.128-10.783,11.358s4.936,11.406,10.878,11.406a10.089,10.089,0,0,0,7.093-2.923v.959a5.5,5.5,0,0,0,1.054,3.067,3.926,3.926,0,0,0,1.63,1.294,4.963,4.963,0,0,0,2.061.431,5.947,5.947,0,0,0,1.294-.144,9.789,9.789,0,0,0,5.367-4.409.6.6,0,0,1,.1-.144l.1-.1a20.772,20.772,0,0,0,2.109-10.3,21.187,21.187,0,0,0-3.115-10.016,20.829,20.829,0,0,0-7.62-7.236A22.45,22.45,0,0,0,1106.75,759.9Zm.1,28.37c-3.93,0-7-3.307-7-7.524s3.067-7.62,6.949-7.668,7.045,3.45,7.093,7.572C1113.89,784.818,1110.727,788.268,1106.846,788.268Z" transform="translate(-469.213 -333.948)" fill="#b2b6bb"/>
    <path id="Caminho_60" data-name="Caminho 60" d="M963.295,573.052a44.738,44.738,0,0,0,13.035-31.725c-.048-25.926-22.045-46.725-48.5-46.725-25.974,0-44.712,19.361-47.684,40.159a46.308,46.308,0,0,0,11.933,37.572,47.385,47.385,0,0,1,12.652,32.492v1.1h46.629v-1.1C951.362,592.413,955.483,581.055,963.295,573.052Z" transform="translate(-361.796 -195.789)" fill="#4d05e8"/>
    <path id="Caminho_61" data-name="Caminho 61" d="M931,710.5s9.01,2.875,23.77,2.875,23.722-2.875,23.722-2.875-1.39,28.418-1.438,30.527c-.1,2.636-13.418,5.99-20.751,5.99-10.926,0-23.77-3.163-24.153-5.559C931.815,739.014,931,710.5,931,710.5Z" transform="translate(-388.494 -308.222)" fill="#3f4249"/>
    <path id="Caminho_62" data-name="Caminho 62" d="M956.032,648.3h-.048a1.127,1.127,0,0,1-.383-.1.859.859,0,0,1-.336-.24.772.772,0,0,1-.192-.336,1.054,1.054,0,0,1-.048-.383l1.2-19.026A34.145,34.145,0,0,1,958,619.206c.863-2.492,1.965-5.8,3.211-9.249h-.335c-4.457,0-8.483-1.534-10.3-3.93a15.771,15.771,0,0,1-2.588-5.655c-.623-2.252-.958-2.971-2.109-3.115h-1.006c-1.15.144-1.438.863-2.061,3.115a15.767,15.767,0,0,1-2.588,5.655c-1.821,2.348-5.847,3.882-10.3,3.93h-.335c1.246,3.451,2.4,6.757,3.211,9.249l1.773,9.009,1.15,19.026a1.054,1.054,0,0,1-.048.383.772.772,0,0,1-.192.336,1.27,1.27,0,0,1-.288.24.9.9,0,0,1-.383.1,1.054,1.054,0,0,1-.383-.048.773.773,0,0,1-.336-.192,1.268,1.268,0,0,1-.24-.287.905.905,0,0,1-.1-.383L932.693,628.5a33.915,33.915,0,0,0-1.725-8.722c-1.1-3.211-2.3-6.613-3.5-9.968a16.94,16.94,0,0,1-11.262-6.326c-4.409-5.607-3.594-10.591-.958-12.891a5.623,5.623,0,0,1,1.438-.911,4.869,4.869,0,0,1,1.629-.288,3.869,3.869,0,0,1,1.629.383,4.554,4.554,0,0,1,1.342.958c1.725,1.773,4.888,9.585,7.668,17.156.383,0,.719.048,1.054.048,3.738,0,7.332-1.294,8.722-3.163a13.634,13.634,0,0,0,2.253-5.032c.623-2.109,1.2-4.265,3.834-4.5h1.294c2.588.24,3.211,2.4,3.834,4.5a13.631,13.631,0,0,0,2.252,5.032c1.438,1.821,5.032,3.115,8.77,3.163a8.116,8.116,0,0,0,1.054-.048c2.78-7.572,5.894-15.383,7.668-17.156a3.663,3.663,0,0,1,1.342-.958,3.87,3.87,0,0,1,1.629-.383,4.668,4.668,0,0,1,1.629.288,3.347,3.347,0,0,1,1.39.911c2.588,2.252,3.4,7.284-.959,12.891a16.67,16.67,0,0,1-11.358,6.326c-1.2,3.307-2.4,6.757-3.5,9.968a33.915,33.915,0,0,0-1.725,8.722l-1.15,18.882a1.2,1.2,0,0,1-.288.671A1.145,1.145,0,0,1,956.032,648.3Zm16.629-56.885a2.8,2.8,0,0,0-.91.192,2.918,2.918,0,0,0-.767.575c-1.342,1.39-4.073,7.955-6.853,15.527a14.646,14.646,0,0,0,8.962-5.415c3.594-4.6,3.163-8.53,1.246-10.208A2.482,2.482,0,0,0,972.661,591.411Zm-54.441,0a2.482,2.482,0,0,0-1.677.671c-1.917,1.677-2.348,5.559,1.246,10.208a14.432,14.432,0,0,0,8.962,5.415c-2.78-7.572-5.511-14.137-6.853-15.527a2.3,2.3,0,0,0-.767-.575A2.076,2.076,0,0,0,918.22,591.411Z" transform="translate(-379.165 -245.156)" fill="#fff"/>
    <path id="Caminho_63" data-name="Caminho 63" d="M956.7,723.182a64.777,64.777,0,0,1-20.894-3.211.491.491,0,0,1-.24-.288.524.524,0,0,1,0-.383.706.706,0,0,1,.24-.287.933.933,0,0,1,.383-.048c.192.1,18.786,7.045,41.214,0a.361.361,0,0,1,.383.048c.144.048.192.192.24.287a.361.361,0,0,1-.048.383c-.048.144-.192.192-.288.24A67.648,67.648,0,0,1,956.7,723.182Z" transform="translate(-390.851 -312.614)" fill="#868a91"/>
    <path id="Caminho_64" data-name="Caminho 64" d="M956.7,733.182a64.774,64.774,0,0,1-20.894-3.211.491.491,0,0,1-.24-.288.524.524,0,0,1,0-.383,1.272,1.272,0,0,1,.24-.288.933.933,0,0,1,.383-.048c.192.1,18.786,7.045,41.214,0a.362.362,0,0,1,.383.048c.144.048.192.192.24.288a.361.361,0,0,1-.048.383c-.048.144-.192.192-.288.24A67.65,67.65,0,0,1,956.7,733.182Z" transform="translate(-390.851 -317.822)" fill="#868a91"/>
    <path id="Caminho_65" data-name="Caminho 65" d="M956.7,743.182a64.778,64.778,0,0,1-20.894-3.211.491.491,0,0,1-.24-.288.524.524,0,0,1,0-.383.7.7,0,0,1,.24-.287.933.933,0,0,1,.383-.048c.192.1,18.786,7.045,41.214,0a.361.361,0,0,1,.383.048c.144.048.192.192.24.287a.361.361,0,0,1-.048.383c-.048.144-.192.192-.288.24A67.648,67.648,0,0,1,956.7,743.182Z" transform="translate(-390.851 -323.03)" fill="#868a91"/>
    <path id="Caminho_66" data-name="Caminho 66" d="M956.7,753.2a64.777,64.777,0,0,1-20.894-3.211.491.491,0,0,1-.24-.288.524.524,0,0,1,0-.383.7.7,0,0,1,.24-.287.935.935,0,0,1,.383-.048c.192.1,18.786,7.045,41.214,0,.048,0,.144-.048.192,0,.048,0,.144.048.192.048l.144.144a.248.248,0,0,1,.1.191c0,.048.048.144,0,.192s0,.144-.048.192l-.144.144a.249.249,0,0,1-.192.1A68.519,68.519,0,0,1,956.7,753.2Z" transform="translate(-390.851 -328.25)" fill="#868a91"/>
    <path id="Caminho_67" data-name="Caminho 67" d="M956.7,763.182a64.775,64.775,0,0,1-20.894-3.211.491.491,0,0,1-.24-.288.524.524,0,0,1,0-.383.706.706,0,0,1,.24-.288.935.935,0,0,1,.383-.048,68.6,68.6,0,0,0,41.214,0,.362.362,0,0,1,.383.048c.144.048.192.192.24.288a.361.361,0,0,1-.048.383c-.048.144-.192.192-.288.24A67.65,67.65,0,0,1,956.7,763.182Z" transform="translate(-390.851 -333.445)" fill="#868a91"/>
    <path id="Caminho_68" data-name="Caminho 68" d="M956.7,773.2a64.775,64.775,0,0,1-20.894-3.211.491.491,0,0,1-.24-.288.524.524,0,0,1,0-.383.7.7,0,0,1,.24-.287.932.932,0,0,1,.383-.048,68.6,68.6,0,0,0,41.214,0c.048,0,.144-.048.192,0,.048,0,.144.048.192.048l.144.144a.248.248,0,0,1,.1.191c0,.048.048.144,0,.192a.288.288,0,0,1-.048.192l-.144.144a.249.249,0,0,1-.192.1A68.519,68.519,0,0,1,956.7,773.2Z" transform="translate(-390.851 -338.665)" fill="#868a91"/>
    <path id="Caminho_69" data-name="Caminho 69" d="M982.293,591.2c14.76,0,26.693-12.412,26.693-27.7s-11.981-27.7-26.693-27.7c-14.76,0-26.693,12.412-26.693,27.7S967.581,591.2,982.293,591.2Z" transform="translate(-401.305 -217.245)" fill="#fff" opacity="0.2"/>
    <path id="Caminho_70" data-name="Caminho 70" d="M713.153,875.3l3.067,35.08,44.473,22.668-12.508,13.514-58.179-18.354L686.7,879.614Z" transform="translate(-261.27 -394.046)" fill="#fc9d9d"/>
    <path id="Caminho_71" data-name="Caminho 71" d="M504.589,729.794l-36.134,11.358c-8.339,2.636-16.1,13.562-15.767,22.332l6.661,111.708h107.4l3.738-72.459,23.674-3.738-8.291-43.083a19.331,19.331,0,0,0-4.361-9.009,18.9,18.9,0,0,0-8.243-5.655L540.532,729.6Z" transform="translate(-139.399 -318.17)" fill="#4d05e8"/>
    <path id="Caminho_72" data-name="Caminho 72" d="M547,732.993l21.278,30.719,9.153-14.137,13.9,10.783L593.2,731.7Z" transform="translate(-188.519 -319.262)" opacity="0.15"/>
    <path id="Caminho_73" data-name="Caminho 73" d="M584.674,691.709,561,675.08l2.252-32.588C561.527,611.773,591,629.169,595.84,632c-.336-.623-.671,16.821-1.677,23.195.527,4.888,2.013,14.569,2.588,19.553Z" transform="translate(-195.809 -263.457)" fill="#fc9d9d"/>
    <path id="Caminho_74" data-name="Caminho 74" d="M607.78,706.251l-.623-6.565-12.7,3.738a19.788,19.788,0,0,1-8.626-3.834,1.042,1.042,0,0,0-.24-.144.521.521,0,0,0-.24-.048,2.068,2.068,0,0,0-.24.048.66.66,0,0,0-.192.144,1.047,1.047,0,0,0-.144.24c0,.1-.048.192,0,.24s.048.192.1.24a.374.374,0,0,0,.192.192,19.793,19.793,0,0,0,11.5,4.265H597A17.818,17.818,0,0,0,607.78,706.251Z" transform="translate(-208.181 -302.441)" opacity="0.15"/>
    <path id="Caminho_75" data-name="Caminho 75" d="M562.438,867.778a1.546,1.546,0,0,1-.863-.288,1.219,1.219,0,0,1-.527-.575,1.518,1.518,0,0,1-.192-.767,1.95,1.95,0,0,0-.383-1.15,2.142,2.142,0,0,0-.958-.767,2.359,2.359,0,0,0-1.15-.1c-.335.1-.671.1-1.006.192a7.449,7.449,0,0,0,1.006.192,1.954,1.954,0,0,1,.863.24,1.654,1.654,0,0,1,.575.575,1.406,1.406,0,0,1,.192.767,1.91,1.91,0,0,0,.336,1.15,2.019,2.019,0,0,0,.91.767,1.9,1.9,0,0,0,1.15.1,7.431,7.431,0,0,0,1.006-.192C563.156,867.874,562.773,867.826,562.438,867.778Zm-10.16,19.983a1.546,1.546,0,0,1-.863-.288,1.219,1.219,0,0,1-.527-.575,1.518,1.518,0,0,1-.192-.767,1.95,1.95,0,0,0-.383-1.15,2.142,2.142,0,0,0-.958-.767,1.889,1.889,0,0,0-1.15-.048,7.411,7.411,0,0,0-1.006.192,7.468,7.468,0,0,0,1.006.192,1.954,1.954,0,0,1,.863.24,1.651,1.651,0,0,1,.575.575,1.405,1.405,0,0,1,.192.767,2.46,2.46,0,0,0,.336,1.15,2.019,2.019,0,0,0,.911.767,1.9,1.9,0,0,0,1.15.1c.335-.1.671-.1,1.006-.192A8.465,8.465,0,0,1,552.278,887.761Zm-47.635-90.574a1.671,1.671,0,0,1-.815-.287,1.22,1.22,0,0,1-.527-.575,1.517,1.517,0,0,1-.192-.767,1.95,1.95,0,0,0-.383-1.15,2.141,2.141,0,0,0-.958-.767,2.216,2.216,0,0,0-1.1-.1,7.444,7.444,0,0,0-1.006.192,7.444,7.444,0,0,0,1.006.192,1.953,1.953,0,0,1,.863.24,1.652,1.652,0,0,1,.575.575,1.406,1.406,0,0,1,.192.767,2.307,2.307,0,0,0,.336,1.15,2.019,2.019,0,0,0,.91.767,1.9,1.9,0,0,0,1.15.1,7.411,7.411,0,0,0,1.006-.192C505.313,797.283,504.978,797.235,504.642,797.187ZM539.53,843.1a3.045,3.045,0,0,1-.863-.287,1.22,1.22,0,0,1-.527-.575,1.517,1.517,0,0,1-.192-.767,1.755,1.755,0,0,0-.192-.863,2.124,2.124,0,0,0-.575-.719,1.824,1.824,0,0,0-.815-.383,1.951,1.951,0,0,0-.911,0,7.449,7.449,0,0,0-1.006.192,7.43,7.43,0,0,0,1.006.192,1.954,1.954,0,0,1,.863.24,1.654,1.654,0,0,1,.575.575,1.406,1.406,0,0,1,.192.767,2.308,2.308,0,0,0,.335,1.15,2.02,2.02,0,0,0,.911.767,1.9,1.9,0,0,0,1.15.1,7.413,7.413,0,0,0,1.006-.192A5.649,5.649,0,0,0,539.53,843.1Zm-49.361,4.313a3.045,3.045,0,0,1-.863-.288,1.22,1.22,0,0,1-.527-.575,1.517,1.517,0,0,1-.192-.767,1.95,1.95,0,0,0-.383-1.15,2.142,2.142,0,0,0-.958-.767,2.359,2.359,0,0,0-1.15-.1c-.336.1-.671.1-1.006.192a7.458,7.458,0,0,0,1.006.192,1.794,1.794,0,0,1,.863.24,1.653,1.653,0,0,1,.575.575,2.054,2.054,0,0,1,.24.767,2.308,2.308,0,0,0,.335,1.15,2.02,2.02,0,0,0,.911.767,1.9,1.9,0,0,0,1.15.1,7.423,7.423,0,0,0,1.006-.192ZM473.54,786.74a3.046,3.046,0,0,1-.863-.288,1.219,1.219,0,0,1-.527-.575,1.518,1.518,0,0,1-.192-.767,1.754,1.754,0,0,0-.192-.863,2.122,2.122,0,0,0-.575-.719,1.823,1.823,0,0,0-.815-.383,2.905,2.905,0,0,0-.91,0,7.443,7.443,0,0,0-1.006.192,7.433,7.433,0,0,0,1.006.192,1.953,1.953,0,0,1,.863.24,1.651,1.651,0,0,1,.575.575,1.406,1.406,0,0,1,.192.767,2.308,2.308,0,0,0,.335,1.15,2.019,2.019,0,0,0,.911.767,2.319,2.319,0,0,0,1.15.144,7.414,7.414,0,0,0,1.006-.192C474.211,786.884,473.876,786.836,473.54,786.74Zm106.054-7.428a1.67,1.67,0,0,1-.815-.288,1.219,1.219,0,0,1-.527-.575,1.518,1.518,0,0,1-.192-.767,1.95,1.95,0,0,0-.383-1.15,2.142,2.142,0,0,0-.958-.767,1.89,1.89,0,0,0-1.15-.048,7.431,7.431,0,0,0-1.006.192,7.431,7.431,0,0,0,1.006.192,1.953,1.953,0,0,1,.863.24,1.652,1.652,0,0,1,.575.575,2.052,2.052,0,0,1,.24.767,1.91,1.91,0,0,0,.335,1.15,2.019,2.019,0,0,0,.911.767,1.874,1.874,0,0,0,1.15.1c.335-.1.671-.1,1.006-.192A9.93,9.93,0,0,0,579.594,779.312Zm-58.418-1.15a2.208,2.208,0,0,1-.815.431,2.323,2.323,0,0,1-.815,0,1.367,1.367,0,0,1-.671-.383,2.284,2.284,0,0,0-1.054-.575,2.06,2.06,0,0,0-1.2.1,1.917,1.917,0,0,0-.91.719l-.575.863.863-.575a1.659,1.659,0,0,1,.767-.383,1.6,1.6,0,0,1,.815.048,2.01,2.01,0,0,1,.671.431,2.222,2.222,0,0,0,1.1.575,2.038,2.038,0,0,0,1.2-.144,2.182,2.182,0,0,0,.863-.767l.575-.863A4.747,4.747,0,0,0,521.176,778.162ZM562.2,759.807a7.411,7.411,0,0,0-.192-1.006,7.439,7.439,0,0,0-.192,1.006,1.953,1.953,0,0,1-.24.863,1.652,1.652,0,0,1-.575.575,1.407,1.407,0,0,1-.767.192,2.308,2.308,0,0,0-1.15.335,2.019,2.019,0,0,0-.767.911,1.9,1.9,0,0,0-.1,1.15,7.442,7.442,0,0,0,.192,1.006,7.452,7.452,0,0,0,.192-1.006,3.044,3.044,0,0,1,.287-.863,1.22,1.22,0,0,1,.575-.527,1.517,1.517,0,0,1,.767-.192,1.95,1.95,0,0,0,1.15-.383,2.143,2.143,0,0,0,.767-.958A1.724,1.724,0,0,0,562.2,759.807Zm-46.1,64.409a7.45,7.45,0,0,0-.192-1.006,7.431,7.431,0,0,0-.192,1.006,1.953,1.953,0,0,1-.24.863,1.652,1.652,0,0,1-.575.575,1.406,1.406,0,0,1-.767.192,2.308,2.308,0,0,0-1.15.336,2.019,2.019,0,0,0-.767.911,1.874,1.874,0,0,0-.1,1.15,7.433,7.433,0,0,0,.192,1.006,7.451,7.451,0,0,0,.192-1.006,3.046,3.046,0,0,1,.288-.863,1.218,1.218,0,0,1,.575-.527,1.517,1.517,0,0,1,.767-.192,2.521,2.521,0,0,0,.863-.192,2.009,2.009,0,0,0,.719-.575,1.825,1.825,0,0,0,.383-.815A1.753,1.753,0,0,0,516.1,824.216Zm-44.473.048a7.431,7.431,0,0,0-.192-1.006,7.445,7.445,0,0,0-.192,1.006,1.952,1.952,0,0,1-.24.863,1.651,1.651,0,0,1-.575.575,1.406,1.406,0,0,1-.767.192,2.308,2.308,0,0,0-1.15.335,1.8,1.8,0,0,0-.767.911,1.9,1.9,0,0,0-.1,1.15,7.421,7.421,0,0,0,.192,1.006,7.454,7.454,0,0,0,.192-1.006,2.357,2.357,0,0,1,.288-.815,1.219,1.219,0,0,1,.575-.527,1.518,1.518,0,0,1,.767-.192,1.95,1.95,0,0,0,1.15-.383,2.142,2.142,0,0,0,.767-.958A2.343,2.343,0,0,0,471.623,824.264ZM530.9,803.9a7.439,7.439,0,0,0-.192-1.006,7.421,7.421,0,0,0-.192,1.006,1.953,1.953,0,0,1-.24.863,1.653,1.653,0,0,1-.575.575,1.407,1.407,0,0,1-.767.192,2.307,2.307,0,0,0-1.15.335,2.019,2.019,0,0,0-.767.911,1.9,1.9,0,0,0-.1,1.15,7.45,7.45,0,0,0,.192,1.006,7.432,7.432,0,0,0,.192-1.006,3.047,3.047,0,0,1,.288-.863,1.218,1.218,0,0,1,.575-.527,1.517,1.517,0,0,1,.767-.192,2.524,2.524,0,0,0,.863-.192,2.121,2.121,0,0,0,.719-.575,1.823,1.823,0,0,0,.383-.815A1.328,1.328,0,0,0,530.9,803.9Zm22.859-18.69a7.465,7.465,0,0,0-.192-1.006,7.428,7.428,0,0,0-.192,1.006,1.951,1.951,0,0,1-.24.863,1.65,1.65,0,0,1-.575.575,1.406,1.406,0,0,1-.767.192,2.307,2.307,0,0,0-1.15.335,2.019,2.019,0,0,0-.767.911,1.874,1.874,0,0,0-.1,1.15,7.436,7.436,0,0,0,.192,1.006,7.436,7.436,0,0,0,.192-1.006,3.045,3.045,0,0,1,.288-.863,1.219,1.219,0,0,1,.575-.527,1.518,1.518,0,0,1,.767-.192,1.755,1.755,0,0,0,.863-.192,2.121,2.121,0,0,0,.719-.575,1.824,1.824,0,0,0,.383-.815A2.605,2.605,0,0,0,553.764,785.207Zm-38.434,75.048a7.452,7.452,0,0,0-.192-1.006,7.432,7.432,0,0,0-.192,1.006,2.909,2.909,0,0,1-.24.863,1.651,1.651,0,0,1-.575.575,1.406,1.406,0,0,1-.767.192,1.911,1.911,0,0,0-1.15.335,2.02,2.02,0,0,0-.767.911,1.9,1.9,0,0,0-.1,1.15,7.422,7.422,0,0,0,.192,1.006,7.46,7.46,0,0,0,.192-1.006,1.546,1.546,0,0,1,.287-.863,1.22,1.22,0,0,1,.575-.527,1.517,1.517,0,0,1,.767-.192,1.755,1.755,0,0,0,.863-.192,2.123,2.123,0,0,0,.719-.575,1.824,1.824,0,0,0,.383-.815A1.321,1.321,0,0,0,515.329,860.254ZM477.278,863.8a1.659,1.659,0,0,1-.767.383,1.6,1.6,0,0,1-.815-.048,2.012,2.012,0,0,1-.671-.431,2.223,2.223,0,0,0-1.1-.575,2.038,2.038,0,0,0-1.2.144,2.627,2.627,0,0,0-.863.767,9,9,0,0,0-.575.863l.863-.575a2.432,2.432,0,0,1,.767-.431,2.063,2.063,0,0,1,.767,0,1.368,1.368,0,0,1,.671.383,2.285,2.285,0,0,0,1.054.575,2.06,2.06,0,0,0,1.2-.1,2.112,2.112,0,0,0,.863-.719,5.4,5.4,0,0,0,.575-.863A3.344,3.344,0,0,1,477.278,863.8Zm90.958-32.875a1.74,1.74,0,0,1-1.629.336,2.011,2.011,0,0,1-.671-.431,2.222,2.222,0,0,0-1.1-.575,2.512,2.512,0,0,0-1.2.144,2.626,2.626,0,0,0-.863.767l-.575.863c.336-.192.575-.383.863-.575a2.429,2.429,0,0,1,.767-.431,1.563,1.563,0,0,1,.815,0,1.367,1.367,0,0,1,.671.383,2.286,2.286,0,0,0,1.054.575,2.062,2.062,0,0,0,1.2-.1,1.8,1.8,0,0,0,.863-.719L569,830.3C568.811,830.494,568.524,830.686,568.236,830.925Zm22-27.029a1.646,1.646,0,0,1-2.3-.1,2.221,2.221,0,0,0-1.1-.575,2.038,2.038,0,0,0-1.2.144,2.626,2.626,0,0,0-.863.767l-.575.863.863-.575a2.43,2.43,0,0,1,.767-.431,1.561,1.561,0,0,1,.815,0,1.365,1.365,0,0,1,.671.383,2.285,2.285,0,0,0,1.054.575,2.061,2.061,0,0,0,1.2-.1,2.113,2.113,0,0,0,.863-.719c.192-.288.383-.527.575-.863A2.562,2.562,0,0,1,590.233,803.9Zm-98.865-39.489a1.661,1.661,0,0,1-.767.383,1.575,1.575,0,0,1-.815-.048,2.011,2.011,0,0,1-.671-.431,2.224,2.224,0,0,0-1.1-.575,2.038,2.038,0,0,0-1.2.144,2.626,2.626,0,0,0-.863.767,8.973,8.973,0,0,0-.575.863c.335-.192.575-.383.863-.575a2.433,2.433,0,0,1,.767-.431,2.322,2.322,0,0,1,.815,0,1.367,1.367,0,0,1,.671.383,2.285,2.285,0,0,0,1.054.575,2.062,2.062,0,0,0,1.2-.1,2.114,2.114,0,0,0,.863-.719c.192-.288.383-.527.575-.863A5.229,5.229,0,0,1,491.368,764.408Zm38.626,119.376a1.568,1.568,0,0,1-.719-.527,1.422,1.422,0,0,1-.335-.719,2.339,2.339,0,0,1,.048-.815,1.718,1.718,0,0,0,0-1.2,1.8,1.8,0,0,0-.671-1.006,2.064,2.064,0,0,0-1.054-.431l-1.006-.144c.287.192.575.335.863.527a1.567,1.567,0,0,1,.719.527,1.258,1.258,0,0,1,.336.719,1.6,1.6,0,0,1-.048.815,2.046,2.046,0,0,0-.048,1.2,2,2,0,0,0,.623,1.006,2.126,2.126,0,0,0,1.054.479l1.006.144A2.47,2.47,0,0,0,529.994,883.784Zm-42.316,6.23a1.9,1.9,0,0,1-.479.719,1.729,1.729,0,0,1-.719.383,1.6,1.6,0,0,1-.815-.048c-.815-.24-1.725-9.968-2.2-9.3a2.17,2.17,0,0,0-.383,1.054c0,.335-.1.671-.1,1.054a8.314,8.314,0,0,0,.479-.911,2.575,2.575,0,0,1,.479-.767,1.366,1.366,0,0,1,.671-.383,1.563,1.563,0,0,1,.815,0c.767.24,1.725,10.064,2.2,9.393a2.063,2.063,0,0,0,.431-1.054,8.609,8.609,0,0,1,.1-1.054A8.313,8.313,0,0,0,487.678,890.014Z" transform="translate(-147.167 -333.376)" fill="#fff" opacity="0.7"/>
    <path id="Caminho_76" data-name="Caminho 76" d="M627.885,619.759a10.555,10.555,0,0,0,5.8-1.869,10.8,10.8,0,0,0,3.786-4.744,10.4,10.4,0,0,0,.479-6.038,10.522,10.522,0,0,0-8.387-8.1,10.063,10.063,0,0,0-6.038.719A10.471,10.471,0,0,0,617.2,609.5a10.347,10.347,0,0,0,3.211,7.332,10.108,10.108,0,0,0,3.451,2.2A10.342,10.342,0,0,0,627.885,619.759Z" transform="translate(-225.074 -250.069)" fill="#21252b"/>
    <path id="Caminho_77" data-name="Caminho 77" d="M602.128,604.4s11.837,45.958-11.837,49.5C569.827,656.968,567,625.1,567,625.1l.623-20.8Z" transform="translate(-198.934 -252.917)" fill="#fc9d9d"/>
    <path id="Caminho_78" data-name="Caminho 78" d="M589.044,584.559l-20.894,1.917a4.485,4.485,0,0,0-1.773.527,4.578,4.578,0,0,0-2.3,2.779,4.736,4.736,0,0,0-.192,1.821,4.944,4.944,0,0,1-1.1,3.5,4.717,4.717,0,0,1-3.211,1.677.81.81,0,0,0-.479.144,1.293,1.293,0,0,0-.383.335,1.942,1.942,0,0,0-.24.431,1.629,1.629,0,0,0-.048.479l.431,4.6a.884.884,0,0,1-.24.767,1.073,1.073,0,0,1-.719.383.971.971,0,0,1-.719-.192,1.459,1.459,0,0,1-.431-.623l-1.007-4.409-.958-1.438-4.888,3.163s-8.243-12.172-4.6-23.434c2.061-6.422,8.387-8.818,11.358-9.2a2.732,2.732,0,0,0,1.342-.527,3.37,3.37,0,0,0,.958-1.054c1.15-2.109,4.121-5.7,10.687-5.607A11.1,11.1,0,0,1,575,561.891a10.8,10.8,0,0,1,4.073,3.69,3.15,3.15,0,0,0,1.821,1.294,3.183,3.183,0,0,0,2.2-.192,9.171,9.171,0,0,1,4.5-.91,8.9,8.9,0,0,1,4.361,1.438C598.869,571.38,596.329,583.265,589.044,584.559Z" transform="translate(-187.145 -230.156)" fill="#21252b"/>
    <path id="Caminho_79" data-name="Caminho 79" d="M564.939,665.273a2.361,2.361,0,0,0,1.15-.1,1.792,1.792,0,0,0,.958-.575l-2.348,5.08Z" transform="translate(-197.736 -284.32)" opacity="0.15"/>
    <path id="Caminho_80" data-name="Caminho 80" d="M558.977,637.858a4.263,4.263,0,0,0-5.655-3.211c-5.415,1.486-6.086,13.275,2.444,15.192,4.5,1.006,3.93-1.725,3.69-5.319Z" transform="translate(-189.713 -268.599)" fill="#fc9d9d"/>
    <path id="Caminho_81" data-name="Caminho 81" d="M555.986,640.614a2.983,2.983,0,0,1,1.246-.431,2.921,2.921,0,0,1,1.294.144,2.459,2.459,0,0,1,1.1.719,3.459,3.459,0,0,1,.671,1.15,5.982,5.982,0,0,1,.383,3.307l-.048,1.006a1.272,1.272,0,0,1-.24.288.421.421,0,0,1-.336.048.518.518,0,0,1-.335-.144.414.414,0,0,1-.144-.287l.048-1.006a6.182,6.182,0,0,0-.336-2.78,1.51,1.51,0,0,0-.431-.815,2,2,0,0,0-.719-.527,1.914,1.914,0,0,0-.91-.1,1.739,1.739,0,0,0-.815.335.529.529,0,0,1-.383,0,.432.432,0,0,1-.288-.288,1.055,1.055,0,0,1-.048-.383C555.795,640.805,555.891,640.662,555.986,640.614Z" transform="translate(-193.049 -271.594)" opacity="0.15"/>
    <g id="Grupo_10" data-name="Grupo 10" transform="translate(388.317 391.686)" opacity="0.15">
      <path id="Caminho_82" data-name="Caminho 82" d="M612.488,690.315h-.048c-1.821-.431-2.78-.671-2.78-.671a.507.507,0,0,1-.335-.288.789.789,0,0,1-.048-.479.745.745,0,0,1,.288-.383.788.788,0,0,1,.479-.1s.911.24,2.732.671c.1,0,.144.048.24.1.048.048.144.1.144.192a.712.712,0,0,1,.1.431,1.042,1.042,0,0,1-.24.383A1.452,1.452,0,0,1,612.488,690.315Z" transform="translate(-609.258 -688.398)" opacity="0.15"/>
    </g>
    <path id="Caminho_83" data-name="Caminho 83" d="M721.28,862.7l-22.38,4.169v5.415l23.674-3.738Z" transform="translate(-267.623 -387.483)" fill="#fff"/>
    <path id="Caminho_84" data-name="Caminho 84" d="M603.769,650.018a2.106,2.106,0,0,0,1.054-.336,2.012,2.012,0,0,0,.671-.863,2.127,2.127,0,0,0,.1-1.1,2.076,2.076,0,0,0-.527-.959,2.02,2.02,0,0,0-.958-.479,2.134,2.134,0,0,0-1.1.144,1.692,1.692,0,0,0-.815.719,2.052,2.052,0,0,0-.288,1.054,1.921,1.921,0,0,0,.144.719,1.824,1.824,0,0,0,.431.623,1.69,1.69,0,0,0,.623.383A1.054,1.054,0,0,0,603.769,650.018Z" transform="translate(-217.109 -274.769)" fill="#21252b"/>
    <path id="Caminho_85" data-name="Caminho 85" d="M607.082,648.917c.1,0,.144-.048.24-.1a.662.662,0,0,0,.144-.192.218.218,0,0,0,0-.24.249.249,0,0,0-.1-.192.363.363,0,0,0-.192-.1.521.521,0,0,0-.24.048.658.658,0,0,0-.192.144.359.359,0,0,0-.048.24.176.176,0,0,0,.048.144c0,.048.048.1.1.144s.1.048.144.1Z" transform="translate(-219.608 -275.728)" fill="#fff"/>
    <path id="Caminho_86" data-name="Caminho 86" d="M635.068,649.517a2.106,2.106,0,0,0,1.054-.336,2.011,2.011,0,0,0,.671-.863,2.125,2.125,0,0,0,.1-1.1,2.077,2.077,0,0,0-.527-.958,1.827,1.827,0,0,0-.958-.479,2.135,2.135,0,0,0-1.1.144,1.692,1.692,0,0,0-.815.719,2.053,2.053,0,0,0-.288,1.054,1.923,1.923,0,0,0,.144.719,1.827,1.827,0,0,0,.431.623,1.691,1.691,0,0,0,.623.383A2.821,2.821,0,0,0,635.068,649.517Z" transform="translate(-233.408 -274.509)" fill="#21252b"/>
    <path id="Caminho_87" data-name="Caminho 87" d="M638.383,648.417c.1,0,.144-.048.24-.1a.661.661,0,0,0,.144-.192.217.217,0,0,0,0-.24.249.249,0,0,0-.1-.192.364.364,0,0,0-.192-.1.432.432,0,0,0-.24.048.659.659,0,0,0-.192.144.359.359,0,0,0-.048.24.176.176,0,0,0,.048.144c0,.048.048.1.1.144s.1.048.144.1S638.288,648.417,638.383,648.417Z" transform="translate(-235.909 -275.467)" fill="#fff"/>
    <g id="Grupo_11" data-name="Grupo 11" transform="translate(391.836 378.968)" opacity="0.15">
      <path id="Caminho_88" data-name="Caminho 88" d="M619.667,666.335l-2.54.24a.359.359,0,0,1-.24-.048.662.662,0,0,1-.192-.144.366.366,0,0,1-.1-.24v-.288a.364.364,0,0,1,.1-.192l.144-.144a.288.288,0,0,1,.192-.048l2.54-.24a.774.774,0,0,0,.431-.144.645.645,0,0,0,.335-.288.592.592,0,0,0,.192-.383,1.327,1.327,0,0,0,.048-.431.772.772,0,0,0-.144-.431.644.644,0,0,0-.287-.336.963.963,0,0,0-.383-.192,1.328,1.328,0,0,0-.431-.048h-.24a.249.249,0,0,1-.192-.1.663.663,0,0,1-.144-.192.289.289,0,0,1-.048-.192v-.24a.364.364,0,0,1,.1-.192.664.664,0,0,1,.192-.144.359.359,0,0,1,.24-.048,1.784,1.784,0,0,1,.863.1,2.359,2.359,0,0,1,1.342,1.1,1.655,1.655,0,0,1,.24.863,1.785,1.785,0,0,1-.1.863,2.431,2.431,0,0,1-.431.767,1.723,1.723,0,0,1-.671.527A1.616,1.616,0,0,1,619.667,666.335Z" transform="translate(-616.6 -661.86)" opacity="0.15"/>
    </g>
    <path id="Caminho_89" data-name="Caminho 89" d="M603.647,639.384a1.4,1.4,0,0,1-.431-.1,6.056,6.056,0,0,0-6.757.144l-.288.144a.3.3,0,0,1-.288,0,.814.814,0,0,1-.479-.287l-.144-.287a.306.306,0,0,1,0-.288.679.679,0,0,1,.1-.287.843.843,0,0,1,.192-.24,7.772,7.772,0,0,1,4.217-1.39,7.267,7.267,0,0,1,4.265,1.246.6.6,0,0,1,.288.383.817.817,0,0,1,0,.479,1.042,1.042,0,0,1-.24.383,1.7,1.7,0,0,1-.431.192Z" transform="translate(-213.633 -269.838)" fill="#21252b"/>
    <path id="Caminho_90" data-name="Caminho 90" d="M455.2,835.8l5.415,94.648h32.731L488.458,881.9Z" transform="translate(-140.711 -373.475)" opacity="0.15"/>
    <path id="Caminho_91" data-name="Caminho 91" d="M700.261,815l3.019,67.236a10.5,10.5,0,0,0,1.773,5.272,10.22,10.22,0,0,0,4.313,3.5l43.37,18.259-.144,5.943L693.6,896.853l4.169-79.361Z" transform="translate(-264.863 -362.643)" opacity="0.15"/>
    <path id="Caminho_92" data-name="Caminho 92" d="M536.316,839.875l-20.655-39.824a1.507,1.507,0,0,0-.863-.767,1.587,1.587,0,0,0-1.15,0L509,801.393l18.5,48.4,3.834-1.342.527,1.581,48.594-20.8,1.677-4.553Z" transform="translate(-168.729 -354.402)" opacity="0.15"/>
    <path id="Caminho_93" data-name="Caminho 93" d="M635.621,638.831a.771.771,0,0,1-.431-.144,6.056,6.056,0,0,0-6.757.144.63.63,0,0,1-.575.144.678.678,0,0,1-.287-.1.838.838,0,0,1-.24-.192.747.747,0,0,1-.144-.575.681.681,0,0,1,.1-.287.841.841,0,0,1,.192-.24,7.772,7.772,0,0,1,4.217-1.39,7.169,7.169,0,0,1,4.265,1.246.744.744,0,0,1,.287.383.814.814,0,0,1,0,.479,1.04,1.04,0,0,1-.24.383,1.7,1.7,0,0,1-.431.192Z" transform="translate(-230.27 -269.525)" fill="#21252b"/>
    <path id="Caminho_94" data-name="Caminho 94" d="M484.349,796l15.575,33.4-32.3,13.275L454.3,812.965Z" transform="translate(-140.244 -352.748)" fill="#4d05e8"/>
    <path id="Caminho_95" data-name="Caminho 95" d="M607.684,676.6h-.144a.167.167,0,0,0-.1.048l-.1.1a.168.168,0,0,1-.048.1v.144a5.124,5.124,0,0,0,1.246,2.492,4.917,4.917,0,0,0,5.176,1.342,4.892,4.892,0,0,0,2.348-1.581c.048-.048.048-.1.1-.144v-.144c0-.048-.048-.1-.1-.144s-.1-.048-.144-.1Z" transform="translate(-219.922 -290.569)" fill="#fff"/>
    <path id="Caminho_96" data-name="Caminho 96" d="M549.7,731.951l20.8,25.783,8.1-11.406,12.8,8.53,3.211-24.105-3.546-1.054L578.6,745.9l-23.243-16.2Z" transform="translate(-189.924 -318.221)" fill="#fff"/>
    <path id="Caminho_97" data-name="Caminho 97" d="M603.693,805.424a2.01,2.01,0,0,0-3.115-1.725l-16.629,11.6,1.246-.527c1.39-4.5-1.246-5.8-1.246-5.8l-7.907,7.476-7.093,12.125-.911.863-46.006,19.5-7.62-17.492L487,844.434l14.9,31.1a11.349,11.349,0,0,0,3.019,3.882,12.011,12.011,0,0,0,4.361,2.348,12.207,12.207,0,0,0,4.936.383,12.627,12.627,0,0,0,4.649-1.677L579.4,842.948c6.469-1.246,9.249-1.677,13.37-6.853l4.84-4.217c.911-.575.911-2.636-.767-3.5-1.054-.527-.958-1.486-.958-2.684a3.336,3.336,0,0,0-.24-1.2,2.524,2.524,0,0,0-.767-.959,3.722,3.722,0,0,1-1.534-2.348,3.156,3.156,0,0,0-3.5-2.779C590.562,818.459,604.459,806.1,603.693,805.424Z" transform="translate(-157.272 -356.565)" fill="#fc9d9d"/>
    <path id="Caminho_98" data-name="Caminho 98" d="M594.363,870.7l-4.265.719-55.687,30.335c-16.773,8.962-22.188-.527-22.811-1.725l3.115,6.469a11.349,11.349,0,0,0,3.019,3.882,12.01,12.01,0,0,0,4.361,2.348,12.208,12.208,0,0,0,4.936.383,12.627,12.627,0,0,0,4.648-1.677l60.527-37.524c5.895-1.486,7.668-.719,11.789-5.176l1.533-1.677,3.882-3.4,1.006-.958-5.607,3.834A25.259,25.259,0,0,1,594.363,870.7Z" transform="translate(-170.083 -387.483)" opacity="0.15"/>
    <path id="Caminho_99" data-name="Caminho 99" d="M688.4,823.278l1.773-1.246a5.806,5.806,0,0,0-.1-3.93C690.557,820.834,688.4,823.278,688.4,823.278Z" transform="translate(-262.155 -364.258)" opacity="0.15"/>
    <path id="Caminho_100" data-name="Caminho 100" d="M476.8,867.378,509.053,854.2l2.827,5.7-32.3,13.275Z" transform="translate(-151.961 -383.057)" fill="#fff"/>
    <path id="Caminho_101" data-name="Caminho 101" d="M498.09,853.331a1.661,1.661,0,0,1-.767.383,1.573,1.573,0,0,1-.815-.048,2.01,2.01,0,0,1-.671-.431,2.221,2.221,0,0,0-1.1-.575,2.037,2.037,0,0,0-1.2.144,2.182,2.182,0,0,0-.863.767l-.575.863.863-.575a2.428,2.428,0,0,1,.767-.431,1.561,1.561,0,0,1,.815,0,1.76,1.76,0,0,1,.719.383,2.284,2.284,0,0,0,1.054.575,2.06,2.06,0,0,0,1.2-.1,1.8,1.8,0,0,0,.863-.719l.575-.863A5.661,5.661,0,0,1,498.09,853.331Z" transform="translate(-159.928 -382.235)" fill="#fff" opacity="0.7"/>
    <path id="Caminho_102" data-name="Caminho 102" d="M711.3,998.3h146.98a2.676,2.676,0,0,1,1.773.719,2.506,2.506,0,0,1,.767,1.773v1.917a2.622,2.622,0,0,1-2.54,2.54H711.3a2.248,2.248,0,0,1-1.677-.719,2.441,2.441,0,0,1-.719-1.677V1000.6a2.532,2.532,0,0,1,.719-1.677A3,3,0,0,1,711.3,998.3Z" transform="translate(-272.831 -458.1)" fill="#3f4249"/>
    <path id="Caminho_103" data-name="Caminho 103" d="M711.3,998.3h146.98a2.676,2.676,0,0,1,1.773.719,2.506,2.506,0,0,1,.767,1.773v1.917a2.622,2.622,0,0,1-2.54,2.54H711.3a2.248,2.248,0,0,1-1.677-.719,2.441,2.441,0,0,1-.719-1.677V1000.6a2.532,2.532,0,0,1,.719-1.677A3,3,0,0,1,711.3,998.3Z" transform="translate(-272.831 -458.1)" opacity="0.3"/>
    <path id="Caminho_104" data-name="Caminho 104" d="M931.709,931H847.7l31.294-62.3h83.962Z" transform="translate(-345.113 -390.608)" fill="#3f4249"/>
    <path id="Caminho_105" data-name="Caminho 105" d="M931.709,931H847.7l31.294-62.3h83.962Z" transform="translate(-345.113 -390.608)" opacity="0.3"/>
    <path id="Caminho_106" data-name="Caminho 106" d="M712,997.9h63.69a2.1,2.1,0,0,1,1.486.623,2.193,2.193,0,0,1,.623,1.487v2.684a2.308,2.308,0,0,1-.623,1.533,2.19,2.19,0,0,1-1.486.623H712a2.247,2.247,0,0,1-1.677-.719,2.44,2.44,0,0,1-.719-1.677V1000.2a2.539,2.539,0,0,1,.719-1.678A2.583,2.583,0,0,1,712,997.9Z" transform="translate(-273.196 -457.891)" fill="#3f4249"/>
    <path id="Caminho_107" data-name="Caminho 107" d="M845.533,931.718l-2.732-1.1L874.095,868.7h3.115Z" transform="translate(-342.563 -390.608)" fill="#3f4249"/>
    <g id="Grupo_12" data-name="Grupo 12" transform="translate(505.031 539.242)" opacity="0.3">
      <path id="Caminho_108" data-name="Caminho 108" d="M932.928,997.26H853.28a.479.479,0,0,1,0-.958h79.648a.479.479,0,0,1,0,.958Z" transform="translate(-852.801 -996.301)" opacity="0.3"/>
    </g>
    <path id="Caminho_109" data-name="Caminho 109" d="M965.013,936.878c2.827-3.882,3.067-8.53.575-10.4s-6.853-.144-9.68,3.738-3.067,8.53-.575,10.4S962.185,940.76,965.013,936.878Z" transform="translate(-400.27 -420.304)" fill="#f4f4f4"/>
    <path id="Caminho_110" data-name="Caminho 110" d="M773.416,1013.1H317.573a5.256,5.256,0,0,0-5.272,5.271v.863a5.256,5.256,0,0,0,5.272,5.271H773.464a5.256,5.256,0,0,0,5.272-5.271v-.863A5.328,5.328,0,0,0,773.416,1013.1Z" transform="translate(-66.294 -465.807)" fill="#868a91"/>
    <path id="Caminho_111" data-name="Caminho 111" d="M780.6,1036.5H357.3v9.872H780.6Z" transform="translate(-89.729 -477.993)" fill="#868a91"/>
    <path id="Caminho_112" data-name="Caminho 112" d="M780,1036.9H356.7v3.978H780Z" transform="translate(-89.416 -478.202)" opacity="0.3"/>
    <path id="Caminho_113" data-name="Caminho 113" d="M771.744,1056.629H254.463a.817.817,0,0,1-.335-.048l-.288-.144a.611.611,0,0,1-.192-.288.711.711,0,0,1-.048-.335.815.815,0,0,1,.048-.335,1,1,0,0,1,.192-.288c.1-.048.192-.144.288-.144a.71.71,0,0,1,.335-.048H771.744a.814.814,0,0,1,.335.048l.288.144a1,1,0,0,1,.192.288.711.711,0,0,1,.048.335.817.817,0,0,1-.048.335,1,1,0,0,1-.192.288.415.415,0,0,1-.288.144A.421.421,0,0,1,771.744,1056.629Z" transform="translate(-35.725 -487.628)" fill="#b2b6bb"/>
    <path id="Caminho_114" data-name="Caminho 114" d="M977.738,454.721a19.361,19.361,0,0,1-.719-3.307,30.9,30.9,0,0,1-.144-6.661,15.923,15.923,0,0,1,.623-3.355,19.367,19.367,0,0,1,.719,3.307,30.9,30.9,0,0,1,.144,6.661A25.835,25.835,0,0,1,977.738,454.721Z" transform="translate(-412.324 -168.082)" fill="#4d61fc"/>
    <path id="Caminho_115" data-name="Caminho 115" d="M908,474.508a18.908,18.908,0,0,1-2.3-2.492,32.842,32.842,0,0,1-3.45-5.7,18.277,18.277,0,0,1-1.15-3.211,18.9,18.9,0,0,1,2.3,2.492c.671.863,1.294,1.821,1.869,2.732a24.317,24.317,0,0,1,1.534,2.923A17.9,17.9,0,0,1,908,474.508Z" transform="translate(-372.923 -179.385)" fill="#4d61fc"/>
    <path id="Caminho_116" data-name="Caminho 116" d="M857,526.82a17.879,17.879,0,0,1-3.211-1.006c-1.006-.431-2.013-.911-2.971-1.438a25.248,25.248,0,0,1-2.828-1.773,22.5,22.5,0,0,1-2.588-2.2,17.884,17.884,0,0,1,3.211,1.006,29.776,29.776,0,0,1,5.8,3.211A22.478,22.478,0,0,1,857,526.82Z" transform="translate(-343.916 -209.223)" fill="#4d61fc"/>
    <path id="Caminho_117" data-name="Caminho 117" d="M838.723,596.6a19.37,19.37,0,0,1-3.307.719,30.9,30.9,0,0,1-6.661.144,15.928,15.928,0,0,1-3.355-.623,19.363,19.363,0,0,1,3.307-.719,30.529,30.529,0,0,1,6.614-.144A19.419,19.419,0,0,1,838.723,596.6Z" transform="translate(-333.501 -248.521)" fill="#4d61fc"/>
    <path id="Caminho_118" data-name="Caminho 118" d="M858.557,660.7a22.864,22.864,0,0,1-2.492,2.3c-.863.671-1.821,1.294-2.732,1.869-.958.575-1.917,1.1-2.923,1.581a18.269,18.269,0,0,1-3.211,1.15,18.9,18.9,0,0,1,2.492-2.3c.863-.671,1.821-1.294,2.732-1.869.958-.575,1.917-1.1,2.923-1.581A12.856,12.856,0,0,1,858.557,660.7Z" transform="translate(-344.853 -282.288)" fill="#4d61fc"/>
    <path id="Caminho_119" data-name="Caminho 119" d="M1090.6,658.4a17.873,17.873,0,0,1,3.211,1.006q1.51.647,3.019,1.438a25.238,25.238,0,0,1,2.827,1.773,18.554,18.554,0,0,1,2.588,2.2,17.876,17.876,0,0,1-3.211-1.006c-1.006-.431-2.013-.911-2.971-1.438s-1.917-1.1-2.828-1.725A20.342,20.342,0,0,1,1090.6,658.4Z" transform="translate(-471.609 -281.089)" fill="#4d61fc"/>
    <path id="Caminho_120" data-name="Caminho 120" d="M1106.9,593.738a20.4,20.4,0,0,1,3.307-.719,25.572,25.572,0,0,1,3.307-.24,19.108,19.108,0,0,1,3.307.144,15.943,15.943,0,0,1,3.355.623,20.4,20.4,0,0,1-3.307.719,28.626,28.626,0,0,1-6.613.1A27.478,27.478,0,0,1,1106.9,593.738Z" transform="translate(-480.098 -246.908)" fill="#4d61fc"/>
    <path id="Caminho_121" data-name="Caminho 121" d="M1089.3,524a22.841,22.841,0,0,1,2.492-2.3c.863-.671,1.821-1.294,2.731-1.869.959-.575,1.917-1.1,2.923-1.581a18.254,18.254,0,0,1,3.211-1.15,18.912,18.912,0,0,1-2.492,2.3c-.863.671-1.821,1.294-2.732,1.869-.958.575-1.917,1.1-2.923,1.581A19.744,19.744,0,0,1,1089.3,524Z" transform="translate(-470.932 -207.507)" fill="#4d61fc"/>
    <path id="Caminho_122" data-name="Caminho 122" d="M1042.4,472.946a17.882,17.882,0,0,1,1.006-3.211q.647-1.51,1.438-3.019a25.268,25.268,0,0,1,1.773-2.827,22.48,22.48,0,0,1,2.2-2.588,17.851,17.851,0,0,1-1.006,3.211q-.647,1.51-1.438,3.019a25.259,25.259,0,0,1-1.773,2.827A22.478,22.478,0,0,1,1042.4,472.946Z" transform="translate(-446.508 -178.447)" fill="#4d61fc"/>
    <g id="Grupo_13" data-name="Grupo 13" transform="translate(491.899 273.316)" opacity="0.2">
      <path id="Caminho_123" data-name="Caminho 123" d="M977.738,454.721a19.361,19.361,0,0,1-.719-3.307,30.9,30.9,0,0,1-.144-6.661,15.923,15.923,0,0,1,.623-3.355,19.367,19.367,0,0,1,.719,3.307,30.9,30.9,0,0,1,.144,6.661A25.835,25.835,0,0,1,977.738,454.721Z" transform="translate(-904.224 -441.398)" fill="#fff" opacity="0.2"/>
      <path id="Caminho_124" data-name="Caminho 124" d="M908,474.5a18.909,18.909,0,0,1-2.3-2.492,32.848,32.848,0,0,1-3.45-5.7,18.274,18.274,0,0,1-1.15-3.211,18.9,18.9,0,0,1,2.3,2.492c.671.863,1.294,1.821,1.869,2.732a24.318,24.318,0,0,1,1.534,2.923A17.9,17.9,0,0,1,908,474.5Z" transform="translate(-864.822 -452.699)" fill="#fff" opacity="0.2"/>
      <path id="Caminho_125" data-name="Caminho 125" d="M857,526.82a17.879,17.879,0,0,1-3.211-1.006c-1.006-.431-2.013-.911-2.971-1.438a25.248,25.248,0,0,1-2.828-1.773,22.5,22.5,0,0,1-2.588-2.2,17.884,17.884,0,0,1,3.211,1.006,29.776,29.776,0,0,1,5.8,3.211A22.478,22.478,0,0,1,857,526.82Z" transform="translate(-835.815 -482.539)" fill="#fff" opacity="0.2"/>
      <path id="Caminho_126" data-name="Caminho 126" d="M838.723,596.6a19.37,19.37,0,0,1-3.307.719,30.9,30.9,0,0,1-6.661.144,15.928,15.928,0,0,1-3.355-.623,19.363,19.363,0,0,1,3.307-.719,30.529,30.529,0,0,1,6.614-.144A19.419,19.419,0,0,1,838.723,596.6Z" transform="translate(-825.4 -521.837)" fill="#fff" opacity="0.2"/>
      <path id="Caminho_127" data-name="Caminho 127" d="M858.559,660.7a22.864,22.864,0,0,1-2.492,2.3c-.863.671-1.821,1.294-2.732,1.869-.958.575-1.917,1.1-2.923,1.581a18.27,18.27,0,0,1-3.211,1.15,18.888,18.888,0,0,1,2.492-2.3c.863-.671,1.821-1.294,2.732-1.869.958-.575,1.917-1.1,2.923-1.581A12.853,12.853,0,0,1,858.559,660.7Z" transform="translate(-836.753 -555.603)" fill="#fff" opacity="0.2"/>
      <path id="Caminho_128" data-name="Caminho 128" d="M1090.6,658.4a17.873,17.873,0,0,1,3.211,1.006q1.51.647,3.019,1.438a25.238,25.238,0,0,1,2.827,1.773,18.554,18.554,0,0,1,2.588,2.2,17.876,17.876,0,0,1-3.211-1.006c-1.006-.431-2.013-.911-2.971-1.438s-1.917-1.1-2.828-1.725A20.342,20.342,0,0,1,1090.6,658.4Z" transform="translate(-963.508 -554.405)" fill="#fff" opacity="0.2"/>
      <path id="Caminho_129" data-name="Caminho 129" d="M1106.9,593.738a20.4,20.4,0,0,1,3.307-.719,25.572,25.572,0,0,1,3.307-.24,19.108,19.108,0,0,1,3.307.144,15.943,15.943,0,0,1,3.355.623,20.4,20.4,0,0,1-3.307.719,28.626,28.626,0,0,1-6.613.1A27.478,27.478,0,0,1,1106.9,593.738Z" transform="translate(-971.997 -520.224)" fill="#fff" opacity="0.2"/>
      <path id="Caminho_130" data-name="Caminho 130" d="M1089.3,524a22.848,22.848,0,0,1,2.492-2.3c.863-.671,1.821-1.294,2.731-1.869.959-.575,1.917-1.1,2.923-1.581a18.259,18.259,0,0,1,3.211-1.15,18.912,18.912,0,0,1-2.492,2.3c-.863.671-1.821,1.294-2.732,1.869-.958.575-1.917,1.1-2.923,1.581A19.744,19.744,0,0,1,1089.3,524Z" transform="translate(-962.831 -480.82)" fill="#fff" opacity="0.2"/>
      <path id="Caminho_131" data-name="Caminho 131" d="M1042.4,472.942a17.88,17.88,0,0,1,1.006-3.211q.647-1.51,1.438-3.019a25.262,25.262,0,0,1,1.773-2.827,22.486,22.486,0,0,1,2.2-2.588,17.849,17.849,0,0,1-1.006,3.211q-.647,1.51-1.438,3.019a25.262,25.262,0,0,1-1.773,2.827A22.472,22.472,0,0,1,1042.4,472.942Z" transform="translate(-938.407 -451.761)" fill="#fff" opacity="0.2"/>
    </g>
    <path id="Caminho_132" data-name="Caminho 132" d="M1171.467,959H1140.7v15.479a10.309,10.309,0,0,0,10.255,10.256h10.112a10.227,10.227,0,0,0,10.208-10.112Z" transform="translate(-497.699 -437.634)" fill="#61656d"/>
    <path id="Caminho_133" data-name="Caminho 133" d="M1159.8,944.186a5.425,5.425,0,0,1-2.54.91,4.988,4.988,0,0,1-2.636-.479,5.594,5.594,0,0,1-2.827-4.457,6.9,6.9,0,0,1,2.54-.671,6.018,6.018,0,0,1,2.588.431,6.833,6.833,0,0,1,2.109,1.534,6.079,6.079,0,0,1,1.294,2.3" transform="translate(-503.48 -427.468)" fill="#4d61fc"/>
    <path id="Caminho_134" data-name="Caminho 134" d="M1130.1,955.686a5.423,5.423,0,0,1-2.54.911,4.987,4.987,0,0,1-2.636-.479,5.257,5.257,0,0,1-1.965-1.869,6.139,6.139,0,0,1-.863-2.588,6.9,6.9,0,0,1,2.54-.671,6.015,6.015,0,0,1,2.588.431,6.833,6.833,0,0,1,2.109,1.533,6.084,6.084,0,0,1,1.294,2.3" transform="translate(-488.013 -433.457)" fill="#4d61fc"/>
    <path id="Caminho_135" data-name="Caminho 135" d="M1145.866,932.908a5.029,5.029,0,0,1-1.629,2.108,5.3,5.3,0,0,1-2.444,1.054,5.8,5.8,0,0,1-2.684-.479,5.22,5.22,0,0,1-2.109-1.677,6.163,6.163,0,0,1,1.725-1.965,6.329,6.329,0,0,1,2.4-1.054,6.1,6.1,0,0,1,4.984,1.294" transform="translate(-495.773 -422.947)" fill="#4d61fc"/>
    <path id="Caminho_136" data-name="Caminho 136" d="M1143.7,948.491a5.536,5.536,0,0,1,2.636.527,4.8,4.8,0,0,1,2.013,1.773,5.529,5.529,0,0,1,.1,5.272,6.981,6.981,0,0,1-2.54-.719,5.388,5.388,0,0,1-2.013-1.725,5.528,5.528,0,0,1-1.006-2.444,6.967,6.967,0,0,1,.048-2.636" transform="translate(-498.786 -432.157)" fill="#4d61fc"/>
    <path id="Caminho_137" data-name="Caminho 137" d="M1128.459,969.138a5.431,5.431,0,0,1,.623,2.588,5.592,5.592,0,0,1-.767,2.588,5.658,5.658,0,0,1-2.061,1.773,6.274,6.274,0,0,1-2.684.575,6.26,6.26,0,0,1,.335-5.128,5.836,5.836,0,0,1,4.121-2.636" transform="translate(-488.573 -442.788)" fill="#4d61fc"/>
    <path id="Caminho_138" data-name="Caminho 138" d="M1117,943.262a3.035,3.035,0,0,1,1.246-.767,4.935,4.935,0,0,1,1.677-.287,18.532,18.532,0,0,1,2.3.144,6.266,6.266,0,0,0,2.827-.24,4.493,4.493,0,0,0,2.348-2.252,14.272,14.272,0,0,0,1.007-3.451,10.356,10.356,0,0,1,1.2-3.546,12.72,12.72,0,0,1,2.636-2.684,11.381,11.381,0,0,0,2.492-2.54,8.4,8.4,0,0,0,1.246-5.847,8.284,8.284,0,0,0-1.533-3.738c-.24-.288-.479-.575-.719-.815a.188.188,0,1,0-.048.048,5.956,5.956,0,0,1,.671.863,8.07,8.07,0,0,1,1.39,3.738,8.173,8.173,0,0,1-1.294,5.655,12.278,12.278,0,0,1-2.492,2.492,12.1,12.1,0,0,0-2.684,2.732,10.6,10.6,0,0,0-1.246,3.642,11.7,11.7,0,0,1-.958,3.355,4.036,4.036,0,0,1-2.156,2.109,5.859,5.859,0,0,1-2.732.24,18.486,18.486,0,0,0-2.3-.1,4.307,4.307,0,0,0-1.725.383,2.994,2.994,0,0,0-.958.623,1.044,1.044,0,0,0-.192.24Z" transform="translate(-485.357 -415.761)" fill="#4d61fc"/>
    <path id="Caminho_139" data-name="Caminho 139" d="M1117,943.262a3.035,3.035,0,0,1,1.246-.767,4.935,4.935,0,0,1,1.677-.287,18.532,18.532,0,0,1,2.3.144,6.266,6.266,0,0,0,2.827-.24,4.493,4.493,0,0,0,2.348-2.252,14.272,14.272,0,0,0,1.007-3.451,10.356,10.356,0,0,1,1.2-3.546,12.72,12.72,0,0,1,2.636-2.684,11.381,11.381,0,0,0,2.492-2.54,8.4,8.4,0,0,0,1.246-5.847,8.284,8.284,0,0,0-1.533-3.738c-.24-.288-.479-.575-.719-.815a.188.188,0,1,0-.048.048,5.956,5.956,0,0,1,.671.863,8.07,8.07,0,0,1,1.39,3.738,8.173,8.173,0,0,1-1.294,5.655,12.278,12.278,0,0,1-2.492,2.492,12.1,12.1,0,0,0-2.684,2.732,10.6,10.6,0,0,0-1.246,3.642,11.7,11.7,0,0,1-.958,3.355,4.036,4.036,0,0,1-2.156,2.109,5.859,5.859,0,0,1-2.732.24,18.486,18.486,0,0,0-2.3-.1,4.307,4.307,0,0,0-1.725.383,2.994,2.994,0,0,0-.958.623,1.044,1.044,0,0,0-.192.24Z" transform="translate(-485.357 -415.761)" fill="#4d61fc"/>
    <path id="Caminho_140" data-name="Caminho 140" d="M1241.193,967.816a8.015,8.015,0,0,1,.767-3.786,7.9,7.9,0,0,1,2.492-2.971,7.926,7.926,0,0,1,7.428-1.006A13.808,13.808,0,0,1,1241.193,967.816Z" transform="translate(-550.03 -437.919)" fill="#4d61fc"/>
    <path id="Caminho_141" data-name="Caminho 141" d="M1239.547,978.3c1.534,1.677,1.534,4.936.431,6.949a14.49,14.49,0,0,1-4.84,4.648,10.114,10.114,0,0,1,.24-6.517A9.938,9.938,0,0,1,1239.547,978.3Z" transform="translate(-546.659 -447.685)" fill="#4d61fc"/>
    <path id="Caminho_142" data-name="Caminho 142" d="M1218.5,963.057a9.635,9.635,0,0,1-1.054,3.45,9.318,9.318,0,0,1-2.348,2.78,9.068,9.068,0,0,1-3.259,1.629,9.314,9.314,0,0,1-3.642.24,12.49,12.49,0,0,1,3.45-6.565c1.869-1.677,4.84-2.3,6.949-.863" transform="translate(-532.852 -439.678)" fill="#4d61fc"/>
    <path id="Caminho_143" data-name="Caminho 143" d="M1229.7,952.684c.383-2.2,2.588-3.019,4.84-3.211a9.486,9.486,0,0,1,6.278,2.109,7.912,7.912,0,0,1-5.32,2.732A7.831,7.831,0,0,1,1229.7,952.684Z" transform="translate(-544.048 -432.66)" fill="#4d61fc"/>
    <path id="Caminho_144" data-name="Caminho 144" d="M1249.23,996c2.156,1.821,2.492,5.751,1.581,8.387a13.078,13.078,0,0,1-5.271,6.326,17.165,17.165,0,0,1-1.006-8.195A8.772,8.772,0,0,1,1249.23,996Z" transform="translate(-551.693 -456.902)" fill="#4d61fc"/>
    <path id="Caminho_145" data-name="Caminho 145" d="M1219.06,941.579a5.679,5.679,0,0,0-2.109-1.869,6.105,6.105,0,0,0-2.732-.719,6.7,6.7,0,0,0-5.319,2.252,5.831,5.831,0,0,0,2.061,2.4,5.561,5.561,0,0,0,8.1-2.06Z" transform="translate(-533.216 -427.21)" fill="#4d61fc"/>
    <path id="Caminho_146" data-name="Caminho 146" d="M1224.844,924.217a8.856,8.856,0,0,0,3.546.287,8.3,8.3,0,0,0,3.355-1.2,8.422,8.422,0,0,0,2.588-2.444,8.319,8.319,0,0,0,1.342-3.307,18.356,18.356,0,0,0-5.128.1,8.227,8.227,0,0,0-4.553,2.253,4.267,4.267,0,0,0-1.15,2.013A4.675,4.675,0,0,0,1224.844,924.217Z" transform="translate(-541.444 -415.981)" fill="#4d61fc"/>
    <path id="Caminho_147" data-name="Caminho 147" d="M1211.117,916.133a6.932,6.932,0,0,0,1.869-2.4,6.917,6.917,0,0,0,0-5.942,6.515,6.515,0,0,0-1.869-2.4,14.974,14.974,0,0,0-3.067,6.47,5.652,5.652,0,0,0,.048,2.684,3.459,3.459,0,0,0,.671,1.15,2.878,2.878,0,0,0,1.2.623" transform="translate(-532.701 -409.719)" fill="#4d61fc"/>
    <g id="Grupo_15" data-name="Grupo 15" transform="translate(675.349 523.248)" opacity="0.4">
      <g id="Grupo_14" data-name="Grupo 14" transform="translate(0 0)" opacity="0.4">
        <path id="Caminho_148" data-name="Caminho 148" d="M1218.5,963.057a9.635,9.635,0,0,1-1.054,3.45,9.318,9.318,0,0,1-2.348,2.78,9.068,9.068,0,0,1-3.259,1.629,9.314,9.314,0,0,1-3.642.24,12.49,12.49,0,0,1,3.45-6.565c1.869-1.677,4.84-2.3,6.949-.863" transform="translate(-1208.2 -962.926)" fill="#4d61fc" opacity="0.4"/>
      </g>
    </g>
    <g id="Grupo_19" data-name="Grupo 19" transform="translate(683.256 501.441)" opacity="0.4">
      <g id="Grupo_18" data-name="Grupo 18" transform="translate(0 0)" opacity="0.4">
        <g id="Grupo_17" data-name="Grupo 17" opacity="0.4">
          <g id="Grupo_16" data-name="Grupo 16" opacity="0.4">
            <path id="Caminho_149" data-name="Caminho 149" d="M1224.844,924.217a8.856,8.856,0,0,0,3.546.287,8.3,8.3,0,0,0,3.355-1.2,8.422,8.422,0,0,0,2.588-2.444,8.319,8.319,0,0,0,1.342-3.307,18.356,18.356,0,0,0-5.128.1,8.227,8.227,0,0,0-4.553,2.253,4.267,4.267,0,0,0-1.15,2.013A4.675,4.675,0,0,0,1224.844,924.217Z" transform="translate(-1224.7 -917.422)" fill="#4d61fc" opacity="0.4"/>
          </g>
        </g>
      </g>
    </g>
    <path id="Caminho_150" data-name="Caminho 150" d="M1196.719,943.355v-.192a2.349,2.349,0,0,0-.048-.527c-.048-.431-.048-1.1-.1-1.965a17.7,17.7,0,0,1,1.15-7.045,10.253,10.253,0,0,1,2.828-3.978,7.618,7.618,0,0,1,5.176-1.917,6.278,6.278,0,0,1,2.923.719,5.429,5.429,0,0,1,2.252,2.157,11.839,11.839,0,0,1,1.294,6.469,41.034,41.034,0,0,0-.144,6.853,9.138,9.138,0,0,0,.863,3.163,6.964,6.964,0,0,0,1.917,2.492,9.4,9.4,0,0,0,2.684,1.342,11.752,11.752,0,0,1,2.492,1.15,9.2,9.2,0,0,1,3.307,3.594,8.5,8.5,0,0,1,.958,3.93,9.092,9.092,0,0,1-1.677,5.368.6.6,0,0,0,.1-.144l.287-.431a8.863,8.863,0,0,0,.911-1.773,9.66,9.66,0,0,0,.575-3.068,9,9,0,0,0-.911-4.025,9.357,9.357,0,0,0-3.355-3.738c-1.534-1.006-3.546-1.294-5.128-2.492a8.039,8.039,0,0,1-2.636-5.463,53.564,53.564,0,0,1,.144-6.757,12.02,12.02,0,0,0-1.342-6.661,6.027,6.027,0,0,0-2.4-2.252,6.915,6.915,0,0,0-3.067-.767,7.73,7.73,0,0,0-5.368,2.013,11.251,11.251,0,0,0-2.875,4.121,14.518,14.518,0,0,0-.958,4.026,22.762,22.762,0,0,0-.1,3.115c.048.863.1,1.534.144,1.965,0,.192.048.383.048.527A.362.362,0,0,1,1196.719,943.355Z" transform="translate(-526.738 -421.174)" fill="#4d61fc"/>
    <g id="Grupo_23" data-name="Grupo 23" transform="translate(669.723 506.22)" opacity="0.4">
      <g id="Grupo_22" data-name="Grupo 22" opacity="0.4">
        <g id="Grupo_21" data-name="Grupo 21" opacity="0.4">
          <g id="Grupo_20" data-name="Grupo 20" opacity="0.4">
            <path id="Caminho_151" data-name="Caminho 151" d="M1196.719,943.355v-.192a2.349,2.349,0,0,0-.048-.527c-.048-.431-.048-1.1-.1-1.965a17.7,17.7,0,0,1,1.15-7.045,10.253,10.253,0,0,1,2.828-3.978,7.618,7.618,0,0,1,5.176-1.917,6.278,6.278,0,0,1,2.923.719,5.429,5.429,0,0,1,2.252,2.157,11.839,11.839,0,0,1,1.294,6.469,41.034,41.034,0,0,0-.144,6.853,9.138,9.138,0,0,0,.863,3.163,6.964,6.964,0,0,0,1.917,2.492,9.4,9.4,0,0,0,2.684,1.342,11.752,11.752,0,0,1,2.492,1.15,9.2,9.2,0,0,1,3.307,3.594,8.5,8.5,0,0,1,.958,3.93,9.092,9.092,0,0,1-1.677,5.368.6.6,0,0,0,.1-.144l.287-.431a8.863,8.863,0,0,0,.911-1.773,9.66,9.66,0,0,0,.575-3.068,9,9,0,0,0-.911-4.025,9.357,9.357,0,0,0-3.355-3.738c-1.534-1.006-3.546-1.294-5.128-2.492a8.039,8.039,0,0,1-2.636-5.463,53.564,53.564,0,0,1,.144-6.757,12.02,12.02,0,0,0-1.342-6.661,6.027,6.027,0,0,0-2.4-2.252,6.915,6.915,0,0,0-3.067-.767,7.73,7.73,0,0,0-5.368,2.013,11.251,11.251,0,0,0-2.875,4.121,14.518,14.518,0,0,0-.958,4.026,22.762,22.762,0,0,0-.1,3.115c.048.863.1,1.534.144,1.965,0,.192.048.383.048.527A.362.362,0,0,1,1196.719,943.355Z" transform="translate(-1196.461 -927.394)" fill="#21252b" opacity="0.4"/>
          </g>
        </g>
      </g>
    </g>
    <path id="Caminho_152" data-name="Caminho 152" d="M1101.917,932.339a6.17,6.17,0,0,1-.479-2.3,5.618,5.618,0,0,1,.623-2.636,5.531,5.531,0,0,1,1.869-2.061,5.788,5.788,0,0,1,2.636-.911,7.225,7.225,0,0,1,2.252.24c1.533.383,3.019,1.246,4.84,1.629a6.055,6.055,0,0,0,2.78-.048,4.341,4.341,0,0,0,2.3-1.821c1.1-1.677,1.39-3.786,2.683-5.367a5.163,5.163,0,0,1,2.444-1.581,7.2,7.2,0,0,1,7.62,2.2,11.045,11.045,0,0,1,2.348,4.361,13.163,13.163,0,0,1,.527,4.313,48.3,48.3,0,0,1-.815,6.374q-.216,1.078-.287,1.725c0,.192-.048.336-.048.431v.144c0-.048.048-.1.048-.144a1.776,1.776,0,0,1,.1-.431c.1-.431.192-1.006.383-1.725a40.842,40.842,0,0,0,.911-6.374,13.709,13.709,0,0,0-.479-4.409,10.8,10.8,0,0,0-2.4-4.5,7.052,7.052,0,0,0-2.2-1.725,7.205,7.205,0,0,0-2.827-.863,7.763,7.763,0,0,0-2.971.288,5.279,5.279,0,0,0-2.588,1.725c-1.39,1.677-1.677,3.786-2.732,5.367a3.837,3.837,0,0,1-2.109,1.677,4.923,4.923,0,0,1-2.636.048c-1.725-.335-3.259-1.2-4.792-1.581a6.441,6.441,0,0,0-2.348-.24,5.094,5.094,0,0,0-2.061.575,5.8,5.8,0,0,0-2.4,2.156,5.616,5.616,0,0,0-.479,4.84,2.93,2.93,0,0,0,.24.575" transform="translate(-477.176 -415.67)" fill="#21252b"/>
    <path id="Caminho_153" data-name="Caminho 153" d="M1131.386,920.384a6.1,6.1,0,0,1-2.731.863,6.408,6.408,0,0,1-2.828-.479,5.258,5.258,0,0,1-1.965-1.869,6.138,6.138,0,0,1-.863-2.588,5.766,5.766,0,0,1,2.54-.719,6.013,6.013,0,0,1,2.588.431,6.051,6.051,0,0,1,3.451,3.834" transform="translate(-488.482 -415.023)" fill="#4d61fc"/>
    <path id="Caminho_154" data-name="Caminho 154" d="M1119.712,936.122a6.043,6.043,0,0,1-2.54,4.936,6.369,6.369,0,0,1-2.636.719,5.617,5.617,0,0,1-2.636-.623,6.235,6.235,0,0,1,.767-2.54,6.33,6.33,0,0,1,1.725-2.013,6.23,6.23,0,0,1,5.08-.91" transform="translate(-482.701 -425.394)" fill="#4d61fc"/>
    <path id="Caminho_155" data-name="Caminho 155" d="M1098.359,928.459a5.586,5.586,0,0,1-2.78.575,6,6,0,0,1-2.732-.767,5.7,5.7,0,0,1-2.348-4.745,6.014,6.014,0,0,1,2.588-.431,5.764,5.764,0,0,1,2.54.719,6.163,6.163,0,0,1,1.965,1.725,5.53,5.53,0,0,1,1.006,2.444" transform="translate(-471.557 -418.929)" fill="#4d61fc"/>
    <path id="Caminho_156" data-name="Caminho 156" d="M1155.139,908.249a6.335,6.335,0,0,0,2.2-5.224,5.841,5.841,0,0,0-1.2-2.444,5.522,5.522,0,0,0-2.2-1.582,6.751,6.751,0,0,0-1.438,2.2,6.074,6.074,0,0,0-.335,2.636,6.64,6.64,0,0,0,.815,2.492,6.337,6.337,0,0,0,1.821,1.917" transform="translate(-503.656 -406.388)" fill="#4d61fc"/>
    <path id="Caminho_157" data-name="Caminho 157" d="M1176.883,913.82a7.349,7.349,0,0,1-3.211-.575,7.533,7.533,0,0,1-2.684-1.869,6.893,6.893,0,0,1-1.438-2.827,7.248,7.248,0,0,1-.1-3.211,6.812,6.812,0,0,1,3.4.144,6,6,0,0,1,2.828,1.869,6.143,6.143,0,0,1,1.486,3.067A6.845,6.845,0,0,1,1176.883,913.82Z" transform="translate(-512.605 -409.61)" fill="#4d61fc"/>
    <g id="Grupo_25" data-name="Grupo 25" transform="translate(656.717 495.578)" opacity="0.7">
      <g id="Grupo_24" data-name="Grupo 24" transform="translate(0 0)" opacity="0.7">
        <path id="Caminho_158" data-name="Caminho 158" d="M1176.883,913.82a7.349,7.349,0,0,1-3.211-.575,7.533,7.533,0,0,1-2.684-1.869,6.893,6.893,0,0,1-1.438-2.827,7.248,7.248,0,0,1-.1-3.211,6.812,6.812,0,0,1,3.4.144,6,6,0,0,1,2.828,1.869,6.143,6.143,0,0,1,1.486,3.067A6.845,6.845,0,0,1,1176.883,913.82Z" transform="translate(-1169.321 -905.187)" fill="#fff" opacity="0.7"/>
      </g>
    </g>
    <path id="Caminho_159" data-name="Caminho 159" d="M1209.316,894.661a.371.371,0,0,0-.048-.144,2.823,2.823,0,0,1-.192-.383,13.857,13.857,0,0,0-.91-1.39,15.592,15.592,0,0,0-4.457-4.217,9.955,9.955,0,0,0-3.978-1.438,9.787,9.787,0,0,0-4.84.527,8.094,8.094,0,0,0-4.169,3.4,26.108,26.108,0,0,0-1.821,5.463,9.188,9.188,0,0,1-1.15,2.636,7.478,7.478,0,0,1-1.965,1.917,26.236,26.236,0,0,0-2.2,1.629,10.191,10.191,0,0,0-1.821,1.965,12.482,12.482,0,0,0-1.869,4.5,15.608,15.608,0,0,0-.24,4.217,31.943,31.943,0,0,0,1.1,6.038q.288,1.078.432,1.582a2.685,2.685,0,0,0,.192.575c-.048-.192-.048-.383-.1-.575-.1-.383-.24-.958-.383-1.629a36.273,36.273,0,0,1-.959-5.99,15.292,15.292,0,0,1,.288-4.169,11.491,11.491,0,0,1,1.821-4.409,9.192,9.192,0,0,1,1.725-1.869,25.91,25.91,0,0,1,2.2-1.581,8.227,8.227,0,0,0,2.061-2.013,10.25,10.25,0,0,0,1.2-2.684,25.644,25.644,0,0,1,1.773-5.415,7.411,7.411,0,0,1,3.978-3.259,9.781,9.781,0,0,1,4.7-.527,10.43,10.43,0,0,1,3.93,1.39,15.719,15.719,0,0,1,4.457,4.073c.431.575.767,1.054.958,1.342A1.676,1.676,0,0,1,1209.316,894.661Z" transform="translate(-517.961 -400.132)" fill="#4d61fc"/>
    <path id="Caminho_160" data-name="Caminho 160" d="M1190.728,917.7a5.684,5.684,0,0,1,2.923.91,7.612,7.612,0,0,1,2.492,3.738,8,8,0,0,1,.048,4.5,6.03,6.03,0,0,1-3.163-.719,6.626,6.626,0,0,1-2.4-2.2A6.168,6.168,0,0,1,1190.728,917.7Z" transform="translate(-523.286 -416.126)" fill="#4d61fc"/>
    <g id="Grupo_27" data-name="Grupo 27" transform="translate(666.546 501.574)" opacity="0.7">
      <g id="Grupo_26" data-name="Grupo 26" transform="translate(0)" opacity="0.7">
        <path id="Caminho_161" data-name="Caminho 161" d="M1190.728,917.7a5.684,5.684,0,0,1,2.923.91,7.612,7.612,0,0,1,2.492,3.738,8,8,0,0,1,.048,4.5,6.03,6.03,0,0,1-3.163-.719,6.626,6.626,0,0,1-2.4-2.2A6.168,6.168,0,0,1,1190.728,917.7Z" transform="translate(-1189.833 -917.699)" fill="#fff" opacity="0.7"/>
      </g>
    </g>
    <path id="Caminho_162" data-name="Caminho 162" d="M1234.7,896.413c.288-.671.623-.479,1.294-.623a4.286,4.286,0,0,1,2.061.048,7.882,7.882,0,0,1,3.882,2.3,7.772,7.772,0,0,1,1.965,4.026,6.154,6.154,0,0,1-6.278-.287,6.218,6.218,0,0,1-2.779-5.655" transform="translate(-546.652 -404.662)" fill="#4d61fc"/>
    <path id="Caminho_163" data-name="Caminho 163" d="M1180.531,941.736a7.176,7.176,0,0,1,2.588-1.869,7.017,7.017,0,0,1,6.182.288,6.657,6.657,0,0,1,2.348,2.109,8.336,8.336,0,0,1-11.549-.048" transform="translate(-518.218 -427.367)" fill="#4d61fc"/>
    <path id="Caminho_164" data-name="Caminho 164" d="M1189.633,893.057a7.053,7.053,0,0,1-3.163.431,7.441,7.441,0,0,1-3.019-.958,7.075,7.075,0,0,1-2.3-2.157A6.876,6.876,0,0,1,1180,887.4a6.512,6.512,0,0,1,3.259-1.006,6.167,6.167,0,0,1,3.307.815,6.517,6.517,0,0,1,2.444,2.4,6.678,6.678,0,0,1,.863,3.307" transform="translate(-518.166 -399.821)" fill="#4d61fc"/>
    <path id="Caminho_165" data-name="Caminho 165" d="M1205.04,892a7.147,7.147,0,0,1,3.163-.431,7.441,7.441,0,0,1,3.019.958,6.742,6.742,0,0,1,2.3,2.2,6.874,6.874,0,0,1,1.15,2.971,6.513,6.513,0,0,1-3.259,1.006,6.169,6.169,0,0,1-3.307-.815,6.517,6.517,0,0,1-2.444-2.4,6.678,6.678,0,0,1-.863-3.307" transform="translate(-531.081 -402.502)" fill="#4d61fc"/>
    <path id="Caminho_166" data-name="Caminho 166" d="M1206.2,876.941a7.041,7.041,0,0,1-2.732-1.677,7.59,7.59,0,0,1-1.725-2.684,7.117,7.117,0,0,1-.383-3.163,6.846,6.846,0,0,1,1.006-3.019,6.435,6.435,0,0,1,3.163,1.342,6.274,6.274,0,0,1,2.013,2.732,6.807,6.807,0,0,1,.335,3.4,6.071,6.071,0,0,1-1.438,3.067" transform="translate(-529.273 -389.409)" fill="#4d61fc"/>
    <path id="Caminho_167" data-name="Caminho 167" d="M1226.924,878.687a6.494,6.494,0,0,1-.383-3.163,7.508,7.508,0,0,1,1.006-3.019,7.275,7.275,0,0,1,5.272-3.4,6.14,6.14,0,0,1,.911,3.307,6.678,6.678,0,0,1-.863,3.307,6.517,6.517,0,0,1-2.444,2.4,6.633,6.633,0,0,1-3.307.815" transform="translate(-542.374 -390.818)" fill="#4d61fc"/>
    <g id="Grupo_49" data-name="Grupo 49" transform="translate(631.643 501.239)" opacity="0.7">
      <g id="Grupo_48" data-name="Grupo 48" transform="translate(0 0)" opacity="0.7">
        <g id="Grupo_39" data-name="Grupo 39" transform="translate(2.444 6.612)" opacity="0.7">
          <g id="Grupo_38" data-name="Grupo 38" opacity="0.7">
            <g id="Grupo_29" data-name="Grupo 29" transform="translate(14.233 4.163)" opacity="0.7">
              <g id="Grupo_28" data-name="Grupo 28" opacity="0.7">
                <path id="Caminho_168" data-name="Caminho 168" d="M1159.8,944.19a5.425,5.425,0,0,1-2.54.91,4.988,4.988,0,0,1-2.636-.479,5.594,5.594,0,0,1-2.827-4.457,6.9,6.9,0,0,1,2.54-.671,5.9,5.9,0,0,1,2.588.431,6.83,6.83,0,0,1,2.109,1.534,6.079,6.079,0,0,1,1.294,2.3" transform="translate(-1151.8 -939.484)" fill="#fff" opacity="0.7"/>
              </g>
            </g>
            <g id="Grupo_31" data-name="Grupo 31" transform="translate(0 9.674)" opacity="0.7">
              <g id="Grupo_30" data-name="Grupo 30" opacity="0.7">
                <path id="Caminho_169" data-name="Caminho 169" d="M1130.1,955.69a5.424,5.424,0,0,1-2.54.911,4.988,4.988,0,0,1-2.636-.479,5.257,5.257,0,0,1-1.965-1.869,6.141,6.141,0,0,1-.863-2.588,6.9,6.9,0,0,1,2.54-.671,6.014,6.014,0,0,1,2.588.431,6.829,6.829,0,0,1,2.109,1.534,6.084,6.084,0,0,1,1.294,2.3" transform="translate(-1122.1 -950.984)" fill="#fff" opacity="0.7"/>
              </g>
            </g>
            <g id="Grupo_33" data-name="Grupo 33" transform="translate(7.141)" opacity="0.7">
              <g id="Grupo_32" data-name="Grupo 32" opacity="0.7">
                <path id="Caminho_170" data-name="Caminho 170" d="M1145.866,932.908a5.029,5.029,0,0,1-1.629,2.108,5.092,5.092,0,0,1-2.444,1.054,5.8,5.8,0,0,1-2.684-.479,5.562,5.562,0,0,1-2.109-1.677,6.163,6.163,0,0,1,1.725-1.965,6.329,6.329,0,0,1,2.4-1.054,6.1,6.1,0,0,1,4.984,1.294" transform="translate(-1137 -930.797)" fill="#fff" opacity="0.7"/>
              </g>
            </g>
            <g id="Grupo_35" data-name="Grupo 35" transform="translate(9.913 8.478)" opacity="0.7">
              <g id="Grupo_34" data-name="Grupo 34" opacity="0.7">
                <path id="Caminho_171" data-name="Caminho 171" d="M1143.7,948.5a5.535,5.535,0,0,1,2.636.527,5.112,5.112,0,0,1,2.013,1.773,5.528,5.528,0,0,1,.1,5.271,6.975,6.975,0,0,1-2.54-.719,6.331,6.331,0,0,1-2.013-1.725,5.529,5.529,0,0,1-1.006-2.444,6.967,6.967,0,0,1,.048-2.636" transform="translate(-1142.786 -948.488)" fill="#fff" opacity="0.7"/>
              </g>
            </g>
            <g id="Grupo_37" data-name="Grupo 37" transform="translate(0.516 18.261)" opacity="0.7">
              <g id="Grupo_36" data-name="Grupo 36" opacity="0.7">
                <path id="Caminho_172" data-name="Caminho 172" d="M1128.459,969.142a5.431,5.431,0,0,1,.623,2.588,5.592,5.592,0,0,1-.767,2.588,5.661,5.661,0,0,1-2.061,1.773,6.274,6.274,0,0,1-2.684.575,6.26,6.26,0,0,1,.335-5.128,5.837,5.837,0,0,1,4.121-2.636" transform="translate(-1123.176 -968.902)" fill="#fff" opacity="0.7"/>
              </g>
            </g>
          </g>
        </g>
        <g id="Grupo_43" data-name="Grupo 43" opacity="0.7">
          <g id="Grupo_42" data-name="Grupo 42" opacity="0.7">
            <g id="Grupo_41" data-name="Grupo 41" opacity="0.7">
              <g id="Grupo_40" data-name="Grupo 40" opacity="0.7">
                <path id="Caminho_173" data-name="Caminho 173" d="M1117,943.262a3.035,3.035,0,0,1,1.246-.767,4.935,4.935,0,0,1,1.677-.287,18.532,18.532,0,0,1,2.3.144,6.266,6.266,0,0,0,2.827-.24,4.493,4.493,0,0,0,2.348-2.252,14.272,14.272,0,0,0,1.007-3.451,10.356,10.356,0,0,1,1.2-3.546,12.72,12.72,0,0,1,2.636-2.684,11.381,11.381,0,0,0,2.492-2.54,8.4,8.4,0,0,0,1.246-5.847,8.284,8.284,0,0,0-1.533-3.738c-.24-.288-.479-.575-.719-.815a.188.188,0,1,0-.048.048,5.956,5.956,0,0,1,.671.863,8.07,8.07,0,0,1,1.39,3.738,8.173,8.173,0,0,1-1.294,5.655,12.278,12.278,0,0,1-2.492,2.492,12.1,12.1,0,0,0-2.684,2.732,10.6,10.6,0,0,0-1.246,3.642,11.7,11.7,0,0,1-.958,3.355,4.036,4.036,0,0,1-2.156,2.109,5.859,5.859,0,0,1-2.732.24,18.486,18.486,0,0,0-2.3-.1,4.307,4.307,0,0,0-1.725.383,2.994,2.994,0,0,0-.958.623,1.044,1.044,0,0,0-.192.24Z" transform="translate(-1117 -917)" fill="#fff" opacity="0.7"/>
              </g>
            </g>
          </g>
        </g>
        <g id="Grupo_47" data-name="Grupo 47" opacity="0.7">
          <g id="Grupo_46" data-name="Grupo 46" opacity="0.7">
            <g id="Grupo_45" data-name="Grupo 45" opacity="0.7">
              <g id="Grupo_44" data-name="Grupo 44" opacity="0.7">
                <path id="Caminho_174" data-name="Caminho 174" d="M1117,943.262a3.035,3.035,0,0,1,1.246-.767,4.935,4.935,0,0,1,1.677-.287,18.532,18.532,0,0,1,2.3.144,6.266,6.266,0,0,0,2.827-.24,4.493,4.493,0,0,0,2.348-2.252,14.272,14.272,0,0,0,1.007-3.451,10.356,10.356,0,0,1,1.2-3.546,12.72,12.72,0,0,1,2.636-2.684,11.381,11.381,0,0,0,2.492-2.54,8.4,8.4,0,0,0,1.246-5.847,8.284,8.284,0,0,0-1.533-3.738c-.24-.288-.479-.575-.719-.815a.188.188,0,1,0-.048.048,5.956,5.956,0,0,1,.671.863,8.07,8.07,0,0,1,1.39,3.738,8.173,8.173,0,0,1-1.294,5.655,12.278,12.278,0,0,1-2.492,2.492,12.1,12.1,0,0,0-2.684,2.732,10.6,10.6,0,0,0-1.246,3.642,11.7,11.7,0,0,1-.958,3.355,4.036,4.036,0,0,1-2.156,2.109,5.859,5.859,0,0,1-2.732.24,18.486,18.486,0,0,0-2.3-.1,4.307,4.307,0,0,0-1.725.383,2.994,2.994,0,0,0-.958.623,1.044,1.044,0,0,0-.192.24Z" transform="translate(-1117 -917)" fill="#21252b" opacity="0.7"/>
              </g>
            </g>
          </g>
        </g>
      </g>
    </g>
    <g id="Grupo_67" data-name="Grupo 67" transform="translate(661.646 476.989)" opacity="0.7">
      <g id="Grupo_66" data-name="Grupo 66" transform="translate(0 0)" opacity="0.7">
        <g id="Grupo_51" data-name="Grupo 51" transform="translate(26.403 14.034)" opacity="0.7">
          <g id="Grupo_50" data-name="Grupo 50" opacity="0.7">
            <path id="Caminho_175" data-name="Caminho 175" d="M1234.7,896.409c.288-.671.623-.479,1.294-.623a4.285,4.285,0,0,1,2.061.048,7.881,7.881,0,0,1,3.882,2.3,7.773,7.773,0,0,1,1.965,4.026,6.153,6.153,0,0,1-6.278-.287,6.218,6.218,0,0,1-2.779-5.655" transform="translate(-1234.7 -895.683)" fill="#fff" opacity="0.7"/>
          </g>
        </g>
        <g id="Grupo_53" data-name="Grupo 53" transform="translate(0.237 34.93)" opacity="0.7">
          <g id="Grupo_52" data-name="Grupo 52" opacity="0.7">
            <path id="Caminho_176" data-name="Caminho 176" d="M1180.531,941.736a7.176,7.176,0,0,1,2.588-1.869,7.017,7.017,0,0,1,6.182.288,6.657,6.657,0,0,1,2.348,2.109,8.336,8.336,0,0,1-11.549-.048" transform="translate(-1180.1 -939.285)" fill="#fff" opacity="0.7"/>
          </g>
        </g>
        <g id="Grupo_55" data-name="Grupo 55" transform="translate(0.189 9.579)" opacity="0.7">
          <g id="Grupo_54" data-name="Grupo 54" opacity="0.7">
            <path id="Caminho_177" data-name="Caminho 177" d="M1189.633,893.053a7.053,7.053,0,0,1-3.163.431,7.44,7.44,0,0,1-3.019-.958,7.075,7.075,0,0,1-2.3-2.157A6.875,6.875,0,0,1,1180,887.4a6.513,6.513,0,0,1,3.259-1.006,6.167,6.167,0,0,1,3.307.815,6.518,6.518,0,0,1,2.444,2.4,6.679,6.679,0,0,1,.863,3.307" transform="translate(-1180 -886.386)" fill="#fff" opacity="0.7"/>
          </g>
        </g>
        <g id="Grupo_57" data-name="Grupo 57" transform="translate(12.074 12.048)" opacity="0.7">
          <g id="Grupo_56" data-name="Grupo 56" opacity="0.7">
            <path id="Caminho_178" data-name="Caminho 178" d="M1205.04,892a7.147,7.147,0,0,1,3.163-.431,7.441,7.441,0,0,1,3.019.958,6.742,6.742,0,0,1,2.3,2.2,6.874,6.874,0,0,1,1.15,2.971,6.513,6.513,0,0,1-3.259,1.006,6.169,6.169,0,0,1-3.307-.815,6.517,6.517,0,0,1-2.444-2.4,6.678,6.678,0,0,1-.863-3.307" transform="translate(-1204.8 -891.539)" fill="#fff" opacity="0.7"/>
          </g>
        </g>
        <g id="Grupo_59" data-name="Grupo 59" transform="translate(10.41)" opacity="0.7">
          <g id="Grupo_58" data-name="Grupo 58" opacity="0.7">
            <path id="Caminho_179" data-name="Caminho 179" d="M1206.2,876.941a7.041,7.041,0,0,1-2.732-1.677,7.59,7.59,0,0,1-1.725-2.684,7.117,7.117,0,0,1-.383-3.163,6.846,6.846,0,0,1,1.006-3.019,6.435,6.435,0,0,1,3.163,1.342,6.274,6.274,0,0,1,2.013,2.732,6.807,6.807,0,0,1,.335,3.4,6.071,6.071,0,0,1-1.438,3.067" transform="translate(-1201.328 -866.398)" fill="#fff" opacity="0.7"/>
          </g>
        </g>
        <g id="Grupo_61" data-name="Grupo 61" transform="translate(22.466 1.294)" opacity="0.7">
          <g id="Grupo_60" data-name="Grupo 60" opacity="0.7">
            <path id="Caminho_180" data-name="Caminho 180" d="M1226.924,878.683a6.494,6.494,0,0,1-.383-3.163,7.509,7.509,0,0,1,1.006-3.019,7.275,7.275,0,0,1,5.272-3.4,6.14,6.14,0,0,1,.911,3.307,6.678,6.678,0,0,1-.863,3.307,6.519,6.519,0,0,1-2.444,2.4,6.633,6.633,0,0,1-3.307.815" transform="translate(-1226.486 -869.098)" fill="#fff" opacity="0.7"/>
          </g>
        </g>
        <g id="Grupo_65" data-name="Grupo 65" transform="translate(0 9.868)" opacity="0.7">
          <g id="Grupo_64" data-name="Grupo 64" opacity="0.7">
            <g id="Grupo_63" data-name="Grupo 63" opacity="0.7">
              <g id="Grupo_62" data-name="Grupo 62" opacity="0.7">
                <path id="Caminho_181" data-name="Caminho 181" d="M1209.316,894.661a.371.371,0,0,0-.048-.144,2.823,2.823,0,0,1-.192-.383,13.857,13.857,0,0,0-.91-1.39,15.592,15.592,0,0,0-4.457-4.217,9.955,9.955,0,0,0-3.978-1.438,9.787,9.787,0,0,0-4.84.527,8.094,8.094,0,0,0-4.169,3.4,26.108,26.108,0,0,0-1.821,5.463,9.188,9.188,0,0,1-1.15,2.636,7.478,7.478,0,0,1-1.965,1.917,26.236,26.236,0,0,0-2.2,1.629,10.191,10.191,0,0,0-1.821,1.965,12.482,12.482,0,0,0-1.869,4.5,15.608,15.608,0,0,0-.24,4.217,31.943,31.943,0,0,0,1.1,6.038q.288,1.078.432,1.582a2.685,2.685,0,0,0,.192.575c-.048-.192-.048-.383-.1-.575-.1-.383-.24-.958-.383-1.629a36.273,36.273,0,0,1-.959-5.99,15.292,15.292,0,0,1,.288-4.169,11.491,11.491,0,0,1,1.821-4.409,9.192,9.192,0,0,1,1.725-1.869,25.91,25.91,0,0,1,2.2-1.581,8.227,8.227,0,0,0,2.061-2.013,10.25,10.25,0,0,0,1.2-2.684,25.644,25.644,0,0,1,1.773-5.415,7.411,7.411,0,0,1,3.978-3.259,9.781,9.781,0,0,1,4.7-.527,10.43,10.43,0,0,1,3.93,1.39,15.719,15.719,0,0,1,4.457,4.073c.431.575.767,1.054.958,1.342A1.676,1.676,0,0,1,1209.316,894.661Z" transform="translate(-1179.606 -886.988)" fill="#21252b" opacity="0.7"/>
              </g>
            </g>
          </g>
        </g>
      </g>
    </g>
    <path id="Caminho_182" data-name="Caminho 182" d="M390.785,980H375.21a4.037,4.037,0,0,1-1.677-.335,4.717,4.717,0,0,1-1.438-.959,4.441,4.441,0,0,1-.958-1.438,4.038,4.038,0,0,1-.335-1.677V950h24.393v25.639A4.5,4.5,0,0,1,390.785,980Z" transform="translate(-96.76 -432.947)" fill="#61656d"/>
    <path id="Caminho_183" data-name="Caminho 183" d="M425.434,975.033H421.6v-1.869h3.834a1.8,1.8,0,0,0,1.773-1.773V960.943a1.8,1.8,0,0,0-1.773-1.773H421.6V957.3h3.834a3.6,3.6,0,0,1,3.594,3.594v10.447a3.4,3.4,0,0,1-.24,1.39,3.933,3.933,0,0,1-.767,1.2,3.457,3.457,0,0,1-2.588,1.1Z" transform="translate(-123.214 -436.749)" fill="#61656d"/>
    <path id="Caminho_184" data-name="Caminho 184" d="M398.694,955.264V953.4h-1.677V949.8H391.7v25.207a3.734,3.734,0,0,1-.288,1.486,3.965,3.965,0,0,1-2.157,2.156,4.089,4.089,0,0,1-1.486.288H374.3a4.312,4.312,0,0,0,2.732.958h15.623a4.037,4.037,0,0,0,1.677-.336,4.718,4.718,0,0,0,1.438-.958,4.443,4.443,0,0,0,.958-1.438,4.038,4.038,0,0,0,.335-1.677v-4.408h1.677V969.21h-1.677V955.264h1.629Z" transform="translate(-98.582 -432.843)" fill="#3f4249"/>
    <path id="Caminho_185" data-name="Caminho 185" d="M377.472,924.382h-.1a.168.168,0,0,1-.1-.048c-.048-.048-.048-.048-.048-.1v-.1a4.093,4.093,0,0,0-1.246-2.971,4.173,4.173,0,0,0-2.971-1.246h-2.061a4.036,4.036,0,0,1-1.294-.192,2.753,2.753,0,0,1-1.1-.719,2.6,2.6,0,0,1-.719-1.054,2.964,2.964,0,0,1-.24-1.294,4.11,4.11,0,0,1,.24-1.294,2.756,2.756,0,0,1,.719-1.054,4.379,4.379,0,0,1,1.1-.719,3.041,3.041,0,0,1,1.294-.192h11.6a2.732,2.732,0,0,0,1.054-.192,3.648,3.648,0,0,0,.911-.575,2.846,2.846,0,0,0,.623-.863,2.579,2.579,0,0,0,.192-1.054,3.739,3.739,0,0,0-.192-1.054,2.219,2.219,0,0,0-.623-.863,2.947,2.947,0,0,0-.911-.575,2.731,2.731,0,0,0-1.054-.192h-2.78a4.11,4.11,0,0,1-1.294-.24,3.961,3.961,0,0,1-1.1-.719,2.935,2.935,0,0,1-.719-1.1,3.658,3.658,0,0,1-.24-1.294.249.249,0,0,1,.1-.192.363.363,0,0,1,.192-.1.339.339,0,0,1,.288.288,2.6,2.6,0,0,0,.767,1.917,3.391,3.391,0,0,0,.863.575,2.58,2.58,0,0,0,1.054.192h2.78a3.259,3.259,0,0,1,0,6.518h-11.6a2.646,2.646,0,0,0-1.869.767,2.733,2.733,0,0,0-.767,1.869,2.646,2.646,0,0,0,.767,1.869,2.732,2.732,0,0,0,1.869.767h2.061a4.789,4.789,0,0,1,3.4,1.438,4.873,4.873,0,0,1,1.438,3.4v.1c0,.048-.048.048-.048.1-.048.048-.048.048-.1.048C377.52,924.382,377.52,924.382,377.472,924.382Z" transform="translate(-95.093 -409.199)" fill="#b2b6bb"/>
    <path id="Caminho_186" data-name="Caminho 186" d="M399.18,935h-.1a.167.167,0,0,1-.1-.048c-.048-.048-.048-.048-.048-.1v-.815a.983.983,0,0,0-.958-.958,2.809,2.809,0,0,1-.623-.1,1.44,1.44,0,0,1-.863-.863,1.315,1.315,0,0,1-.1-.623v-1.294a2.8,2.8,0,0,1,.1-.623,1.441,1.441,0,0,1,.863-.863,1.316,1.316,0,0,1,.623-.1H399.9a4.949,4.949,0,0,0,3.4-1.39,4.743,4.743,0,0,0,1.39-3.4v-2.348a.249.249,0,0,1,.1-.192.364.364,0,0,1,.192-.1.249.249,0,0,1,.192.1.363.363,0,0,1,.1.192v2.3a5.33,5.33,0,0,1-1.581,3.786,5.415,5.415,0,0,1-3.786,1.582h-1.917a.982.982,0,0,0-.958.958v1.294a.983.983,0,0,0,.958.958,2.8,2.8,0,0,1,.623.1,1.44,1.44,0,0,1,.863.863,1.315,1.315,0,0,1,.1.623v.719c0,.1,0,.192-.1.24A.68.68,0,0,0,399.18,935Z" transform="translate(-110.091 -417.948)" fill="#b2b6bb"/>
  </g>
</svg>
